<?xml version="1.0" standalone="no"?>
<!DOCTYPE svg PUBLIC "-//W3C//DTD SVG 20010904//EN"
 "http://www.w3.org/TR/2001/REC-SVG-20010904/DTD/svg10.dtd">
<svg version="1.0" xmlns="http://www.w3.org/2000/svg"
 width="512.000000pt" height="512.000000pt" viewBox="0 0 512.000000 512.000000"
 preserveAspectRatio="xMidYMid meet">
<metadata>
Created by potrace 1.14, written by Peter Selinger 2001-2017
</metadata>
<g transform="translate(0.000000,512.000000) scale(0.100000,-0.100000)"
fill="#000000" stroke="none">
<path d="M1679 5044 c-96 -86 -122 -104 -113 -77 3 10 -17 -6 -45 -36 -33 -34
-67 -86 -95 -144 l-44 -91 -8 39 c-9 50 -110 158 -124 135 -13 -21 -3 -217 13
-275 15 -54 58 -145 79 -166 8 -8 28 -37 46 -66 41 -65 62 -83 62 -57 1 11 7
2 14 -19 18 -50 36 -69 126 -132 125 -88 244 -137 409 -171 94 -18 325 -15
415 6 l48 12 -6 37 c-10 65 -74 287 -112 387 -85 230 -202 429 -328 557 -99
102 -153 137 -209 137 -42 0 -50 -5 -128 -76z"/>
<path d="M3248 4405 c-3 -184 -3 -186 23 -206 43 -33 104 -19 127 28 6 15 12
47 12 72 0 47 -32 131 -49 131 -14 0 -66 -70 -79 -105 -9 -25 -10 -12 -9 73 0
67 -3 106 -11 114 -9 9 -12 -15 -14 -107z m131 -52 c16 -56 13 -87 -10 -117
-22 -29 -45 -32 -71 -12 -16 12 -17 17 -3 63 15 50 48 103 65 103 5 0 14 -17
19 -37z"/>
<path d="M3104 4475 c-15 -20 -24 -38 -21 -41 8 -8 78 57 71 67 -10 16 -23 9
-50 -26z"/>
<path d="M3484 4475 c-15 -20 -24 -38 -21 -41 8 -8 78 57 71 67 -10 16 -23 9
-50 -26z"/>
<path d="M2964 4445 c-3 -8 -4 -33 -1 -55 5 -45 17 -40 -115 -44 l-58 -2 0 53
c0 40 -4 53 -15 53 -8 0 -15 -3 -16 -7 0 -5 -3 -28 -6 -53 -8 -67 -3 -159 10
-189 11 -23 12 -19 15 47 l3 72 74 0 c40 0 80 3 89 6 14 5 16 -4 16 -67 0 -69
11 -113 22 -93 3 5 6 41 7 79 2 75 14 95 58 95 13 0 23 5 23 11 0 8 -12 10
-35 6 l-35 -6 0 49 c0 34 -4 50 -15 54 -9 3 -18 -1 -21 -9z"/>
<path d="M590 4401 c0 -5 5 -13 10 -16 6 -3 10 -2 10 4 0 5 -4 13 -10 16 -5 3
-10 2 -10 -4z"/>
<path d="M3680 4399 c-40 -16 -60 -40 -60 -70 0 -32 25 -53 87 -74 21 -7 39
-17 41 -23 6 -20 -105 -31 -124 -12 -12 12 -39 -4 -30 -18 11 -18 95 -26 136
-13 72 21 63 62 -22 93 -33 12 -62 28 -65 36 -9 23 33 56 72 56 27 0 35 4 33
16 -4 18 -34 23 -68 9z"/>
<path d="M4361 4393 c-46 -24 -58 -45 -45 -80 7 -21 23 -33 62 -49 63 -25 71
-32 52 -44 -20 -13 -103 -13 -116 0 -13 13 -35 -2 -25 -18 13 -21 101 -26 144
-8 31 12 38 20 35 38 -2 18 -18 29 -68 49 -38 15 -66 33 -68 42 -5 23 56 59
86 52 19 -5 23 -2 20 12 -4 25 -36 27 -77 6z"/>
<path d="M3106 4391 c-3 -5 -9 -47 -12 -95 -8 -102 1 -124 45 -102 33 18 79
66 62 66 -7 0 -24 -9 -38 -20 -45 -35 -57 -27 -48 33 4 28 9 66 11 84 4 31 -9
53 -20 34z"/>
<path d="M3486 4391 c-4 -6 -10 -49 -13 -96 -7 -101 3 -123 46 -101 33 18 79
66 62 66 -7 0 -24 -9 -38 -20 -14 -11 -32 -20 -39 -20 -16 0 -17 13 -4 100 8
60 1 96 -14 71z"/>
<path d="M3862 4373 c-12 -16 -26 -50 -33 -76 -14 -57 1 -104 36 -113 31 -8
98 28 113 61 17 37 7 44 -18 13 -23 -29 -73 -53 -95 -44 -21 8 -19 72 3 115
22 44 39 50 52 17 12 -32 30 -34 30 -3 0 31 -11 44 -41 52 -22 5 -30 1 -47
-22z"/>
<path d="M4038 4318 c-6 -136 20 -160 91 -83 23 25 44 45 46 45 3 0 5 -12 5
-26 0 -53 29 -75 74 -58 24 9 19 27 -6 21 -47 -13 -63 45 -32 118 11 26 12 41
5 48 -7 7 -15 1 -24 -22 -17 -39 -116 -143 -129 -135 -5 3 -8 40 -7 82 1 49
-2 77 -9 80 -7 2 -12 -22 -14 -70z"/>
<path d="M632 4284 c-20 -21 -42 -34 -58 -34 -26 0 -74 -26 -74 -41 0 -14 26
-10 40 6 7 8 20 15 29 15 13 -1 13 -3 -3 -15 -11 -8 -17 -18 -13 -21 12 -12
37 6 58 40 11 18 29 36 39 39 12 3 20 14 20 26 0 26 2 27 -38 -15z"/>
<path d="M732 4177 c-25 -27 -28 -37 -8 -37 8 0 16 -7 20 -15 10 -28 35 -16
45 22 11 40 7 53 -11 35 -17 -17 -28 -15 -22 3 9 21 1 19 -24 -8z"/>
<path d="M1390 4143 c0 -56 -15 -172 -24 -180 -5 -5 -19 -5 -129 0 -49 2 -90
0 -93 -5 -9 -15 15 -43 38 -44 13 -1 60 -4 104 -9 l81 -7 12 33 c7 19 16 80
20 136 4 58 13 108 20 117 12 14 10 16 -8 16 -19 0 -21 -6 -21 -57z"/>
<path d="M280 4130 c-12 -8 -11 -10 8 -10 12 0 22 5 22 10 0 13 -11 13 -30 0z"/>
<path d="M285 4099 c-4 -6 -5 -12 -2 -15 2 -3 7 2 10 11 7 17 1 20 -8 4z"/>
<path d="M1476 4083 c-2 -10 -8 -34 -12 -53 -3 -19 -12 -44 -19 -55 -13 -20
-32 -137 -35 -210 0 -22 -5 -57 -10 -78 -4 -22 -6 -50 -4 -63 2 -13 0 -24 -6
-24 -23 0 -8 -134 21 -192 6 -11 5 -25 -2 -35 -8 -14 -6 -28 6 -56 19 -47 116
-147 142 -147 10 0 27 -7 37 -15 17 -13 18 -15 3 -15 -9 0 -19 -11 -23 -25 -3
-13 -12 -29 -20 -36 -8 -6 -14 -20 -14 -30 0 -24 -20 -35 -32 -18 -7 11 -11
11 -15 1 -10 -26 -21 0 -12 31 5 17 9 34 9 36 0 2 -15 1 -34 -2 -24 -4 -39 -1
-47 9 -6 8 -27 14 -47 14 -51 0 -101 19 -148 57 -23 18 -68 42 -100 54 -33 12
-60 26 -62 30 -2 5 -19 9 -38 9 -24 0 -34 5 -34 15 0 19 -15 19 -46 -2 -30
-19 -17 -33 31 -33 17 0 42 -6 56 -14 14 -7 49 -19 77 -26 43 -10 59 -21 98
-67 70 -81 95 -123 92 -148 -4 -28 17 -67 58 -110 19 -21 36 -53 44 -84 11
-46 10 -53 -20 -123 -18 -40 -38 -84 -45 -98 -19 -37 -32 -70 -47 -115 -7 -22
-19 -44 -25 -48 -7 -4 -13 -17 -13 -27 0 -11 -9 -24 -21 -30 -26 -14 -49 -68
-49 -116 0 -33 -2 -36 -23 -30 -30 7 -88 -9 -120 -34 -23 -18 -35 -20 -106
-14 l-81 7 0 -37 c0 -26 4 -36 16 -36 8 0 29 -13 45 -30 22 -22 28 -35 24 -53
-5 -17 3 -39 24 -74 36 -59 37 -62 12 -112 -15 -32 -16 -42 -5 -62 16 -31 4
-53 -42 -75 -19 -9 -63 -50 -97 -90 -73 -85 -122 -110 -157 -79 -11 10 -20 24
-20 32 0 7 -4 13 -9 13 -4 0 -38 22 -75 50 -63 47 -76 42 -28 -12 8 -10 12
-18 8 -18 -10 0 41 -95 81 -154 66 -93 77 -106 89 -106 19 0 84 79 91 110 6
33 31 40 39 13 12 -43 31 -68 54 -73 24 -7 24 -7 -12 -23 -20 -8 -41 -25 -47
-36 -7 -11 -25 -28 -42 -36 -31 -17 -31 -35 1 -35 12 0 17 -5 14 -13 -7 -19
87 -90 167 -126 103 -47 175 -64 274 -65 120 -1 201 30 315 121 71 57 181 169
179 183 0 3 20 27 45 54 25 27 43 52 41 57 -3 4 3 12 13 18 10 5 50 54 88 107
104 147 111 159 83 156 -4 -1 -5 8 -2 19 5 18 6 19 19 2 13 -17 15 -17 34 7
25 32 25 46 1 53 -14 3 -18 1 -14 -9 8 -22 -14 -16 -31 8 -23 33 -19 64 11 88
39 30 65 23 78 -23 l11 -38 24 35 c14 20 51 75 84 123 32 49 67 100 77 115 17
24 17 28 3 36 -9 5 -14 13 -12 18 1 5 -13 10 -32 12 -54 5 -56 17 -10 51 52
38 63 38 89 5 l20 -25 31 61 31 62 -39 37 c-48 46 -101 61 -216 61 -95 0 -95
0 -149 -79 l-28 -41 -37 16 c-23 9 -50 13 -69 9 -49 -9 -32 20 33 57 81 45 94
69 95 175 1 125 9 167 34 171 11 1 66 5 123 7 56 3 112 9 122 15 14 8 20 8 20
0 0 -7 6 -8 19 0 12 6 21 6 23 0 4 -11 68 19 68 32 0 6 -7 7 -15 4 -9 -3 -77
-8 -153 -11 -75 -4 -156 -8 -179 -10 -24 -1 -50 3 -60 10 -15 11 -21 11 -35
-2 -15 -13 -16 -13 -11 7 4 13 16 23 35 27 19 4 33 15 39 29 4 13 14 24 21 24
17 0 100 75 92 83 -10 10 -125 -3 -175 -20 -46 -16 -47 -16 -74 9 -15 14 -24
31 -21 37 4 6 32 11 62 11 56 0 67 10 35 32 -16 11 -5 13 77 16 105 2 211 27
300 71 31 14 57 32 60 39 4 11 0 12 -19 2 -33 -18 -124 -37 -204 -43 -38 -3
-59 -4 -45 -1 81 15 170 39 207 56 34 16 45 27 53 57 13 48 13 61 -3 61 -15 0
-17 16 -18 132 -1 64 3 92 15 109 12 18 16 47 16 114 l0 90 -38 36 c-31 31
-50 39 -115 53 -44 9 -82 18 -86 20 -4 3 -6 17 -6 33 2 25 7 30 53 43 29 8 52
18 52 21 0 4 -39 7 -88 8 -48 1 -122 7 -164 15 -46 8 -75 9 -71 3 4 -6 -22 -7
-73 -2 -85 8 -154 32 -270 96 -78 42 -129 50 -138 22z m659 -163 c3 -5 -3 -10
-14 -10 -11 0 -23 5 -26 10 -3 6 3 10 14 10 11 0 23 -4 26 -10z m149 -175 c14
-15 23 -38 23 -57 1 -18 -1 -27 -4 -20 -7 18 -23 15 -24 -5 0 -11 -3 -13 -6
-5 -7 19 -23 4 -23 -23 0 -48 -18 -33 -25 21 -5 42 -10 54 -21 50 -10 -4 -14
3 -14 29 0 33 2 35 35 35 25 0 43 -7 59 -25z m-597 -611 c-3 -3 -12 -4 -19 -1
-8 3 -5 6 6 6 11 1 17 -2 13 -5z m-6 -116 c-24 -39 -28 -30 -5 13 8 17 18 28
21 25 3 -3 -4 -20 -16 -38z m246 26 c-3 -3 -12 -4 -19 -1 -8 3 -5 6 6 6 11 1
17 -2 13 -5z m-512 -24 c3 -5 -1 -10 -10 -10 -9 0 -13 5 -10 10 3 6 8 10 10
10 2 0 7 -4 10 -10z m289 -96 c9 -3 16 -12 16 -19 0 -8 7 -21 16 -29 13 -14
14 -21 3 -45 l-13 -28 -26 26 c-42 41 -62 50 -89 38 -19 -9 -26 -8 -37 8 -29
40 -15 50 78 54 20 0 43 -2 52 -5z m-119 -144 c3 -5 1 -10 -4 -10 -6 0 -11 5
-11 10 0 6 2 10 4 10 3 0 8 -4 11 -10z m-175 -181 c0 -33 -31 -69 -60 -69 -11
0 -20 3 -20 8 1 21 62 102 73 95 4 -2 7 -17 7 -34z m210 10 c17 -31 11 -44
-10 -21 -26 28 -34 28 -53 0 -13 -19 -16 -20 -16 -5 -1 24 35 58 54 51 9 -4
20 -15 25 -25z m360 -88 c0 -21 -58 -76 -109 -103 -17 -10 -34 -25 -37 -35
-12 -38 -22 -48 -59 -55 -21 -5 -52 -22 -69 -39 l-31 -30 -3 36 c-3 31 -7 36
-25 33 -16 -2 -23 3 -25 18 -3 18 7 24 71 42 116 34 199 75 232 115 33 40 55
47 55 18z m-495 -75 c-4 -20 -12 -36 -17 -36 -6 0 -7 8 -3 18 4 9 10 27 13 40
8 37 14 17 7 -22z m730 -70 c22 -14 40 -28 40 -33 0 -4 5 -7 10 -6 6 2 15 -9
22 -22 14 -31 11 -31 -23 0 -15 14 -33 25 -41 25 -13 0 -25 5 -71 29 -13 7
-31 9 -41 6 -12 -3 -21 0 -25 10 -10 26 81 20 129 -9z m-700 -16 c-3 -5 3 -30
14 -55 11 -25 18 -45 17 -45 -2 0 -16 16 -30 35 -22 28 -25 38 -16 55 6 11 13
20 16 20 3 0 2 -4 -1 -10z m-125 -74 c0 -3 -4 -8 -10 -11 -5 -3 -10 -1 -10 4
0 6 5 11 10 11 6 0 10 -2 10 -4z m-160 -13 c-1 -18 -18 -35 -24 -24 -4 6 -4
16 -1 21 7 12 25 13 25 3z m270 -43 c0 -5 -8 -10 -17 -10 -15 0 -16 2 -3 10
19 12 20 12 20 0z m258 -109 c27 -48 28 -83 2 -106 -16 -14 -17 -20 -8 -27 10
-6 8 -16 -8 -45 -15 -27 -19 -44 -13 -60 6 -18 3 -26 -14 -38 -12 -8 -26 -15
-31 -15 -18 0 -86 73 -86 92 0 11 -14 24 -37 33 -21 9 -33 19 -27 23 8 6 10
36 5 85 -1 4 -8 7 -17 7 -11 0 -4 12 22 35 21 20 48 35 62 35 13 0 37 11 54
25 27 23 31 23 52 10 12 -8 32 -32 44 -54z m-433 9 c3 -6 -1 -7 -9 -4 -18 7
-21 14 -7 14 6 0 13 -4 16 -10z m632 -115 c3 -17 -1 -25 -11 -25 -20 0 -32 40
-15 51 17 10 22 5 26 -26z m57 -14 c3 -4 3 -11 0 -14 -8 -8 -34 3 -34 14 0 11
27 12 34 0z m126 -16 c0 -8 -4 -15 -10 -15 -5 0 -10 7 -10 15 0 8 5 15 10 15
6 0 10 -7 10 -15z m-160 -160 c0 -8 -7 -15 -15 -15 -8 0 -15 7 -15 15 0 8 7
15 15 15 8 0 15 -7 15 -15z m-836 -51 c11 -4 16 -19 16 -45 0 -41 7 -51 74
-102 23 -18 36 -36 36 -51 0 -22 -2 -23 -32 -11 -96 35 -103 41 -138 116 -32
69 -33 72 -15 85 21 15 35 17 59 8z m374 -27 c24 -19 -4 -32 -34 -17 -24 13
-28 13 -45 -9 -10 -13 -19 -29 -19 -37 0 -8 -4 -14 -10 -14 -13 0 -13 6 1 31
9 17 7 21 -10 26 l-21 5 21 19 c17 15 31 17 63 13 23 -4 47 -11 54 -17z m227
-27 c3 -5 1 -10 -4 -10 -6 0 -11 -7 -11 -17 0 -9 -43 -58 -95 -109 -52 -51
-97 -103 -100 -116 -6 -23 -59 -88 -71 -88 -4 0 -1 6 5 13 6 8 8 17 5 20 -7 7
18 67 28 67 4 0 13 18 20 41 8 28 20 45 37 52 62 28 61 58 -4 96 -32 18 -47
41 -27 41 8 0 54 -30 62 -40 3 -4 17 -10 32 -13 21 -6 31 -1 52 24 14 17 26
35 26 40 0 12 37 12 45 -1z m-406 -92 c0 -28 -2 -30 -9 -13 -12 28 -12 45 0
45 6 0 10 -15 9 -32z m-89 -119 c0 -15 4 -19 19 -14 15 4 18 2 15 -12 -3 -10
-31 -31 -62 -46 l-56 -29 -17 21 c-10 12 -22 21 -28 21 -12 0 -14 14 -5 47 6
22 12 24 112 31 16 2 22 -3 22 -19z m-141 -115 c20 -14 22 -23 18 -55 -3 -22
-1 -41 4 -44 13 -9 -2 -35 -20 -35 -29 0 -33 -13 -9 -32 20 -15 21 -20 11 -37
-18 -29 -17 -47 1 -32 11 9 15 7 19 -9 7 -26 -23 -27 -64 -3 -34 20 -44 40
-28 59 9 11 7 15 -5 20 -11 4 -15 13 -11 25 5 14 -1 22 -22 31 -22 9 -24 12
-10 15 9 3 17 10 17 16 0 19 36 36 61 30 l23 -6 -22 28 c-17 22 -20 30 -10 37
18 11 20 10 47 -8z m585 -53 c17 -18 16 -19 -8 -17 -15 0 -27 8 -30 19 -6 23
16 22 38 -2z m-254 -22 c0 -11 -4 -17 -10 -14 -5 3 -10 13 -10 21 0 8 5 14 10
14 6 0 10 -9 10 -21z m71 -27 c-5 -10 -17 -24 -25 -31 -14 -12 -14 -10 -5 18
6 17 17 31 25 31 11 0 12 -5 5 -18z m-103 -119 c5 -31 -20 -46 -52 -32 -33 15
-33 20 2 41 33 20 46 18 50 -9z m42 -63 c0 -5 -5 -10 -11 -10 -5 0 -7 5 -4 10
3 6 8 10 11 10 2 0 4 -4 4 -10z"/>
<path d="M1660 2900 c-13 -8 -12 -10 3 -10 9 0 17 5 17 10 0 12 -1 12 -20 0z"/>
<path d="M1682 1958 c-19 -19 -14 -30 8 -18 11 6 20 15 20 20 0 14 -14 12 -28
-2z"/>
<path d="M245 4045 c-10 -22 -17 -57 -16 -77 1 -26 -3 -40 -16 -47 -10 -6 -12
-11 -5 -11 17 0 16 -158 -1 -225 -7 -27 -10 -63 -6 -80 5 -24 7 -25 8 -7 1 21
4 29 28 77 22 45 35 123 23 145 -13 25 -11 192 3 201 5 3 7 19 5 35 l-4 29
-19 -40z"/>
<path d="M2303 3943 c9 -2 17 -9 17 -14 0 -5 5 -9 11 -9 5 0 8 4 5 9 -4 5 0
12 6 14 7 3 -3 5 -22 5 -19 0 -27 -2 -17 -5z"/>
<path d="M3910 3710 c-60 -13 -108 -39 -116 -62 -6 -19 -8 -20 -18 -6 -10 14
-19 12 -70 -23 -32 -21 -61 -39 -64 -39 -10 0 -145 -134 -189 -187 -58 -70
-149 -208 -209 -318 -55 -99 -173 -369 -199 -455 l-17 -55 -107 0 -106 0 -3
103 -3 102 -64 0 -65 0 0 -106 0 -106 -100 4 -100 4 0 -68 0 -68 100 0 100 0
0 -100 0 -100 65 0 65 0 0 100 0 100 105 0 c58 0 105 -4 105 -9 0 -5 -11 -18
-25 -29 -28 -22 -39 -65 -61 -222 -19 -143 -19 -210 1 -210 9 0 18 -6 21 -14
3 -8 12 -12 20 -9 16 6 19 -12 4 -22 -5 -3 -10 -15 -10 -26 0 -10 -4 -19 -10
-19 -5 0 -10 5 -10 10 0 6 -7 10 -15 10 -12 0 -15 -16 -15 -84 0 -52 4 -88 11
-92 7 -4 9 -23 6 -48 -3 -22 0 -77 8 -121 7 -44 16 -104 20 -132 4 -29 11 -53
16 -53 4 0 6 -7 3 -15 -4 -9 4 -65 17 -126 l22 -110 51 -35 c114 -79 136 -96
136 -104 0 -13 54 -28 123 -36 34 -4 67 -11 74 -16 7 -5 21 -7 32 -3 10 3 22
1 26 -5 3 -5 13 -10 22 -10 17 0 101 -57 149 -103 37 -33 32 -37 106 73 27 41
47 66 43 55 -4 -11 -9 -29 -12 -40 l-4 -20 16 20 c9 11 21 19 27 17 6 -2 15 3
20 10 6 9 7 6 3 -9 -4 -16 -1 -23 15 -28 11 -4 18 -11 15 -16 -6 -8 8 -13 27
-10 4 0 5 -6 2 -14 -4 -8 -11 -15 -18 -15 -11 0 -36 -45 -36 -65 0 -7 -9 -20
-19 -29 -29 -26 -36 -2 -14 43 21 42 20 61 -4 61 -13 0 -13 2 -2 17 13 15 11
16 -13 11 -16 -3 -28 -1 -28 4 0 5 -4 7 -10 3 -5 -3 -7 -12 -4 -20 4 -8 11
-12 17 -8 6 4 8 0 4 -11 -4 -10 -3 -15 3 -11 6 3 10 2 10 -4 0 -5 -4 -13 -10
-16 -5 -3 -10 -13 -10 -21 0 -8 5 -12 10 -9 6 4 10 -5 10 -21 0 -25 -2 -26
-36 -20 -19 4 -42 10 -51 13 -12 5 -14 1 -8 -18 19 -68 21 -65 -31 -50 -40 11
-66 -9 -93 -71 l-20 -48 22 -11 c17 -9 20 -9 10 1 -15 16 -5 40 14 33 11 -5
14 1 11 23 -2 21 1 29 12 29 8 0 17 6 20 13 4 10 11 8 24 -7 18 -19 18 -21 2
-21 -9 0 -14 -5 -11 -10 4 -6 11 -8 16 -5 5 4 5 -5 -1 -20 -13 -33 -13 -32 5
-39 8 -3 14 -2 14 2 -3 18 3 30 31 60 33 37 38 57 15 66 -20 7 -19 22 1 30 12
4 15 2 10 -9 -6 -17 9 -21 19 -5 3 5 10 10 16 10 16 0 10 -26 -13 -55 -21 -26
-25 -48 -29 -127 -1 -21 -8 -43 -17 -50 -13 -11 -15 -10 -10 2 3 9 0 24 -8 35
-13 18 -14 18 -14 -7 0 -54 -45 -143 -60 -118 -5 7 -15 8 -33 1 -24 -10 -27
-8 -27 12 0 28 17 47 44 48 12 0 16 3 10 5 -7 3 -10 14 -7 24 3 12 0 20 -6 20
-7 0 -10 4 -7 8 2 4 -4 13 -14 20 -14 8 -21 8 -26 1 -4 -8 -9 -7 -15 2 -4 8
-25 14 -48 14 l-39 0 14 27 c14 28 14 28 -16 22 -37 -8 -41 11 -5 28 13 6 22
15 18 21 -3 6 -1 7 5 4 12 -8 42 2 42 14 0 5 -8 9 -17 9 -17 1 -17 1 0 11 21
12 38 4 30 -16 -3 -9 1 -15 10 -15 13 0 21 15 32 56 2 7 -5 9 -18 6 -20 -5
-20 -5 -1 21 10 15 25 24 33 22 11 -5 12 -3 1 10 -9 11 -16 12 -26 4 -18 -15
-34 -3 -34 26 0 14 -9 29 -20 35 -11 6 -20 19 -20 29 0 11 -7 21 -15 25 -15 6
-20 -5 -8 -18 11 -11 13 -45 3 -51 -5 -3 -7 -12 -4 -19 6 -16 -41 -56 -67 -56
-11 0 -18 6 -17 12 2 8 -7 12 -25 10 -15 -2 -39 4 -52 12 -13 9 -31 16 -40 16
-9 0 -15 9 -16 23 0 17 -3 14 -13 -13 -12 -31 -17 -35 -46 -33 -18 1 -37 7
-41 15 -6 8 -9 -1 -10 -27 -1 -22 -1 -44 0 -48 1 -4 3 -17 4 -28 2 -11 9 -24
16 -29 11 -6 11 -8 0 -12 -19 -6 -3 -38 20 -38 18 0 19 -3 9 -30 -7 -23 -7
-34 2 -45 9 -11 9 -15 1 -15 -6 0 -11 -7 -11 -15 0 -8 4 -15 9 -15 5 0 7 -8 4
-19 -7 -26 24 -36 32 -10 8 25 25 25 26 -1 2 -33 4 -38 13 -47 5 -4 7 4 4 20
-4 21 -2 25 8 17 20 -18 -5 -90 -32 -90 -8 0 -14 -10 -14 -23 0 -32 40 -147
51 -147 5 0 8 -3 7 -7 -2 -13 14 -43 23 -43 5 0 8 3 7 8 -5 22 17 109 31 119
24 19 27 16 23 -22 -2 -20 1 -42 8 -50 12 -14 15 -13 34 4 18 16 29 18 81 10
39 -5 64 -4 72 3 9 7 17 5 29 -6 10 -10 21 -13 28 -8 6 5 26 3 46 -4 19 -7 29
-13 22 -13 -20 -1 -3 -21 18 -21 21 0 27 -13 36 -80 l7 -50 309 0 c170 1 316
4 323 7 17 6 20 33 5 33 -5 0 -10 9 -10 19 0 26 -10 51 -20 51 -8 0 -23 -34
-25 -52 0 -5 -3 -8 -7 -8 -31 0 -33 1 -19 9 8 5 11 16 8 24 -8 22 33 73 44 55
7 -10 9 -9 9 4 0 9 -5 20 -11 23 -7 5 -5 13 5 24 11 12 13 20 5 28 -7 7 -1 14
23 23 l33 12 -32 9 c-38 11 -40 16 -15 35 16 13 16 14 -2 8 -16 -6 -17 -4 -11
17 4 13 13 27 19 31 6 4 7 8 2 8 -5 0 -2 8 5 18 7 9 2 7 -13 -6 -25 -23 -27
-23 -57 -7 -18 9 -29 20 -26 25 3 5 -4 14 -15 20 -11 6 -20 19 -20 29 0 10
-16 32 -35 50 -20 18 -33 36 -31 40 9 14 96 43 112 37 8 -3 17 -14 21 -23 14
-39 25 -44 44 -22 23 26 24 40 4 33 -8 -4 -15 -1 -15 6 0 6 -6 10 -12 8 -7 -3
-36 14 -64 38 -39 31 -58 40 -77 37 -34 -7 -44 14 -13 29 14 6 26 16 26 21 0
5 -11 2 -25 -7 -29 -19 -81 -21 -88 -3 -4 9 -6 8 -6 -2 -1 -11 -4 -11 -16 -1
-12 10 -13 16 -3 27 9 11 9 16 0 22 -7 4 -14 20 -16 37 -2 16 -8 41 -14 55 -6
15 -8 30 -4 35 4 4 0 5 -8 2 -11 -4 -16 1 -17 14 -2 16 1 17 13 8 11 -10 14
-9 14 4 0 11 5 14 12 10 7 -4 8 -3 4 4 -12 19 16 14 30 -6 7 -9 14 -12 14 -7
0 6 -12 23 -26 38 -26 28 -47 28 -42 0 2 -9 -3 -18 -9 -20 -7 -3 -13 2 -13 11
0 9 -7 16 -16 16 -8 0 -12 5 -9 10 3 6 -4 10 -17 11 -13 0 -17 3 -10 6 29 11
10 25 -28 20 -27 -3 -45 -1 -54 8 -7 8 -16 12 -18 10 -9 -9 -68 55 -68 74 0
24 16 36 24 19 3 -7 4 -1 1 14 -4 19 -1 28 7 28 7 0 0 12 -15 25 -29 25 -21
33 14 15 13 -7 19 -7 19 0 0 5 -5 10 -11 10 -17 0 -36 24 -32 40 3 11 0 10
-10 -2 -19 -24 -31 -23 -24 2 3 11 1 18 -4 14 -5 -3 -9 0 -9 5 0 20 -2 26 -11
37 -13 16 -29 141 -24 189 12 107 13 243 2 254 -8 8 -8 11 0 11 22 0 20 38 -4
69 -29 37 -67 41 -83 10 -10 -19 -10 -20 8 -10 15 8 21 7 25 -4 3 -7 1 -16 -6
-18 -9 -3 -8 -8 2 -18 9 -9 11 -9 7 -1 -8 14 10 17 18 3 3 -5 -2 -12 -11 -15
-22 -9 -90 56 -114 110 -14 30 -19 69 -21 140 -2 116 3 129 84 189 29 21 69
52 88 67 19 16 40 32 45 36 6 5 37 29 70 55 33 26 66 47 74 47 10 0 11 3 3 13
-10 12 -13 70 -11 217 l0 45 13 -45 c7 -25 9 -49 5 -55 -14 -15 -10 -28 5 -16
7 6 13 31 14 59 1 124 3 143 11 137 5 -3 13 0 17 6 4 8 3 9 -4 5 -8 -5 -12 0
-12 13 0 13 5 19 14 15 7 -3 16 2 19 10 4 9 15 16 26 16 11 0 23 5 26 10 3 6
10 10 16 10 14 0 11 -28 -3 -33 -8 -3 -6 -6 4 -6 10 -1 22 8 28 18 13 26 13
31 -4 25 -8 -3 -17 0 -21 5 -3 6 -10 9 -15 6 -4 -3 -11 2 -14 11 -3 8 -2 13 3
10 5 -3 14 1 21 9 7 8 18 15 25 15 7 0 13 11 13 25 0 24 -2 25 -22 12 -11 -8
-31 -20 -43 -28 -17 -10 -21 -20 -17 -39 5 -23 4 -24 -9 -7 -17 21 -27 22 -27
3 0 -8 -4 -17 -8 -20 -5 -3 -7 45 -6 106 1 61 -3 124 -8 140 -7 20 -7 33 0 40
6 6 5 18 -3 36 -8 15 -17 41 -21 57 -7 28 -6 29 12 15 10 -8 16 -11 12 -6 -4
4 -3 18 2 31 7 17 5 25 -6 29 -8 3 -12 2 -9 -3 3 -5 1 -12 -5 -16 -5 -3 -10
-1 -10 6 0 7 -7 21 -16 30 -15 17 -15 21 0 54 10 20 15 43 13 53 -4 13 -5 11
-6 -5 0 -12 -5 -24 -10 -28 -8 -4 -9 38 -1 55 1 3 1 15 1 26 -2 22 40 64 64
64 7 0 15 -19 18 -46 2 -26 14 -58 26 -73 37 -46 46 -71 33 -89 -23 -32 -25
-44 -11 -85 8 -23 14 -44 15 -47 0 -5 17 -45 43 -100 11 -24 17 -69 18 -144
l2 -108 52 -55 c30 -34 54 -51 58 -45 9 15 33 -1 29 -20 -4 -19 65 -101 113
-132 l38 -26 4 98 3 97 2 -102 c1 -73 -1 -103 -10 -106 -7 -3 -3 -6 9 -6 23
-1 87 -57 122 -109 28 -40 44 -96 36 -122 -8 -24 -13 -24 -40 -4 -17 12 -18
16 -5 24 12 7 12 12 -4 29 -10 11 -21 20 -25 19 -22 -2 -32 4 -27 17 6 16 -19
21 -29 6 -3 -6 -22 -5 -47 3 -40 11 -43 15 -50 56 -5 25 -6 51 -3 58 5 15 -17
16 -31 2 -12 -12 -64 6 -64 22 0 4 -7 8 -15 8 -8 0 -15 4 -15 9 0 5 -6 8 -12
7 -7 0 -14 3 -15 8 0 5 -8 13 -17 18 -18 10 -22 38 -6 38 6 0 10 7 10 15 0 8
-4 15 -10 15 -15 0 -29 -35 -20 -50 5 -8 7 -17 5 -20 -4 -6 5 -67 23 -150 14
-67 8 -166 -10 -187 -10 -11 -18 -27 -18 -35 0 -25 -64 -59 -128 -68 -66 -9
-77 -5 -36 11 44 17 16 20 -41 5 -38 -11 -43 -14 -22 -15 30 -1 37 -17 10 -24
-10 -3 -40 -10 -68 -17 -27 -7 -54 -18 -60 -24 -5 -6 -22 -17 -38 -25 -29 -16
-32 -37 -4 -35 51 4 61 6 50 11 -7 2 -13 11 -13 20 0 19 35 13 36 -7 1 -8 2
-19 3 -24 0 -5 8 -2 17 5 15 12 16 11 10 -7 -4 -14 -1 -26 9 -34 20 -16 19
-31 0 -23 -9 3 -25 -3 -35 -12 -22 -20 -28 -44 -7 -28 6 6 27 11 46 11 19 0
38 7 43 14 7 9 8 7 5 -9 -3 -14 1 -24 11 -28 20 -7 42 20 42 51 0 13 5 26 10
29 6 4 17 21 24 40 20 47 51 54 87 19 28 -27 42 -22 17 6 -7 7 15 -8 49 -34
l62 -46 -3 -68 c-2 -63 -22 -122 -46 -137 -5 -3 -10 -13 -10 -22 0 -14 -15
-30 -78 -86 -20 -19 -21 -18 -55 9 -19 15 -49 29 -67 31 -31 3 -32 2 -17 -15
24 -26 8 -46 -28 -32 -30 11 -55 7 -55 -9 0 -5 8 -7 18 -4 37 9 46 -20 33
-111 -11 -69 -10 -99 3 -187 9 -57 18 -134 22 -171 5 -59 8 -67 29 -72 13 -3
31 -3 39 0 10 4 16 1 16 -8 0 -8 15 -23 34 -33 31 -17 33 -21 28 -58 -3 -21 0
-42 5 -46 6 -3 25 -33 43 -66 18 -33 27 -54 20 -48 -30 28 -31 8 -2 -37 2 -2
7 2 12 10 7 11 11 8 19 -14 l11 -28 38 29 c37 29 146 93 158 93 3 0 4 -9 1
-21 -4 -17 -3 -18 9 -8 8 6 13 19 12 27 -4 22 82 63 222 107 63 20 122 40 131
44 9 5 22 5 30 0 23 -14 34 -10 13 5 -18 14 -14 17 60 51 68 31 169 65 244 82
l23 5 -2 612 c-1 336 -5 600 -9 586 -4 -18 -8 -5 -12 45 -7 92 -64 249 -86
240 -8 -3 -19 0 -24 7 -12 20 -9 31 7 24 9 -3 15 0 15 9 0 7 -7 20 -15 29 -8
8 -15 24 -15 35 0 25 -30 91 -42 91 -4 0 -8 9 -8 20 0 31 -29 82 -42 74 -7 -4
-8 -3 -4 4 4 7 3 12 -2 12 -5 0 -9 10 -9 23 0 27 -48 107 -64 107 -6 0 -9 6
-6 14 3 8 -1 20 -9 26 -12 11 -14 6 -14 -31 0 -56 -14 -40 -29 36 -7 33 -22
70 -33 82 -12 13 -18 29 -14 38 8 22 -108 165 -134 165 -14 0 -18 5 -13 16 6
17 -21 44 -132 128 -81 62 -145 96 -234 125 -78 26 -92 26 -84 4 5 -13 2 -15
-11 -10 -10 4 -20 7 -22 7 -3 0 -2 5 1 10 4 6 -10 10 -35 10 -25 0 -39 -4 -35
-10 3 -5 2 -10 -4 -10 -5 0 -13 5 -16 10 -7 11 -24 11 -75 0z m140 -40 c0 -5
-5 -10 -11 -10 -5 0 -7 5 -4 10 3 6 8 10 11 10 2 0 4 -4 4 -10z m-195 -48 c9
-22 29 -46 46 -56 35 -21 33 -31 -2 -17 -32 12 -65 50 -73 84 -10 41 12 33 29
-11z m235 18 c0 -13 -11 -13 -30 0 -12 8 -11 10 8 10 12 0 22 -4 22 -10z m175
-10 c24 -8 16 -9 -34 -5 -35 3 -77 5 -93 5 -18 0 -27 4 -23 11 8 11 102 5 150
-11z m-246 -64 c-9 -8 -10 -7 -5 7 3 10 7 26 7 35 1 9 4 6 6 -7 3 -13 -1 -28
-8 -35z m304 37 c-7 -2 -19 -2 -25 0 -7 3 -2 5 12 5 14 0 19 -2 13 -5z m44 -9
c-3 -3 -12 -4 -19 -1 -8 3 -5 6 6 6 11 1 17 -2 13 -5z m-447 -74 c0 -5 -9 -10
-19 -10 -11 0 -23 5 -26 10 -4 6 5 10 19 10 14 0 26 -4 26 -10z m557 -66 c-3
-3 -12 -4 -19 -1 -8 3 -5 6 6 6 11 1 17 -2 13 -5z m-617 -99 c0 -28 -19 -55
-36 -48 -19 7 -48 63 -37 73 26 25 73 9 73 -25z m330 3 c26 -29 25 -34 -6 -33
-18 0 -30 7 -34 20 -15 39 8 47 40 13z m-520 -4 c0 -17 -22 -14 -28 4 -2 7 3
12 12 12 9 0 16 -7 16 -16z m654 -21 c43 -20 47 -29 53 -121 5 -68 4 -74 -13
-70 -14 2 -20 13 -22 38 -4 60 -24 124 -45 148 -24 26 -19 27 27 5z m-843 -3
c23 -13 24 -28 2 -52 -27 -30 -43 -22 -43 22 0 41 8 47 41 30z m1033 -9 c8
-12 -11 -61 -22 -61 -9 0 -32 44 -32 60 0 13 47 13 54 1z m139 -37 c26 -12 33
-21 29 -36 -4 -18 -6 -18 -23 -2 -18 16 -19 15 -19 -29 0 -26 4 -47 8 -47 13
0 45 -32 66 -65 11 -16 25 -34 33 -38 7 -5 13 -25 13 -47 0 -28 4 -40 14 -40
21 0 29 -17 22 -45 -4 -17 -13 -23 -29 -23 -34 2 -47 17 -48 57 0 29 -2 32 -9
16 -7 -16 -9 -10 -9 22 -1 39 -3 43 -26 41 -14 -1 -25 -7 -25 -12 0 -5 -8 -15
-17 -23 -10 -8 -12 -11 -4 -7 9 5 12 3 7 -4 -16 -27 -26 -9 -25 46 0 41 3 51
9 37 7 -16 9 -13 9 15 -1 19 -3 29 -6 23 -2 -7 -11 -13 -19 -13 -8 0 -14 -4
-14 -10 0 -5 -10 -10 -23 -10 -13 0 -29 -6 -36 -12 -10 -11 -12 -3 -9 39 3 53
18 64 18 12 0 -16 5 -29 10 -29 6 0 10 17 10 38 0 43 14 62 47 62 14 0 23 6
23 15 0 9 -10 15 -26 15 -20 0 -25 4 -20 16 3 9 6 24 6 35 0 23 19 24 63 3z
m-393 -21 c0 -39 -19 -103 -30 -103 -6 0 -10 29 -10 65 0 58 2 65 20 65 15 0
20 -7 20 -27z m-80 -28 c0 -8 -4 -15 -10 -15 -5 0 -10 7 -10 15 0 8 5 15 10
15 6 0 10 -7 10 -15z m530 -47 c0 -7 -4 -19 -9 -27 -11 -17 -25 3 -17 24 7 18
26 20 26 3z m-210 -69 c0 -43 -3 -50 -16 -45 -9 3 -20 6 -25 6 -15 0 -10 44 7
68 24 35 34 26 34 -29z m-1173 9 c-3 -7 -5 -2 -5 12 0 14 2 19 5 13 2 -7 2
-19 0 -25z m28 12 c3 -5 1 -10 -4 -10 -6 0 -11 5 -11 10 0 6 2 10 4 10 3 0 8
-4 11 -10z m295 -17 c-1 -24 -2 -26 -11 -10 -5 9 -7 22 -4 27 10 17 15 11 15
-17z m79 -37 c-9 -8 -10 -7 -5 7 3 10 7 28 7 40 2 16 3 14 6 -7 3 -16 -1 -34
-8 -40z m48 32 c-3 -7 -5 -2 -5 12 0 14 2 19 5 13 2 -7 2 -19 0 -25z m403 -21
c0 -24 -3 -28 -10 -17 -13 20 -13 63 0 55 6 -3 10 -21 10 -38z m60 23 c15 -8
17 -18 13 -52 -3 -24 -7 -45 -9 -47 -10 -11 -43 48 -44 77 0 33 9 39 40 22z
m58 -57 l-1 -58 -6 50 c-6 48 -5 65 5 65 2 0 3 -26 2 -57z m-768 31 c0 -8 -4
-12 -10 -9 -5 3 -10 10 -10 16 0 5 5 9 10 9 6 0 10 -7 10 -16z m829 -43 c-1
-25 -3 -38 -6 -28 -2 9 -10 17 -16 17 -8 0 -8 3 1 8 13 9 6 42 -9 42 -5 0 -9
4 -9 9 0 5 9 7 20 4 17 -4 20 -13 19 -52z m-1032 -53 c-2 -13 -4 -3 -4 22 0
25 2 35 4 23 2 -13 2 -33 0 -45z m1473 52 c0 -5 -2 -10 -4 -10 -3 0 -8 5 -11
10 -3 6 -1 10 4 10 6 0 11 -4 11 -10z m-203 -37 c-3 -10 -5 -4 -5 12 0 17 2
24 5 18 2 -7 2 -21 0 -30z m-1233 2 c-4 -8 -8 -15 -10 -15 -2 0 -4 7 -4 15 0
8 4 15 10 15 5 0 7 -7 4 -15z m1080 -53 c-1 -67 -4 -82 -15 -82 -11 0 -7 89 5
109 10 16 11 14 10 -27z m411 28 c3 -5 1 -10 -4 -10 -6 0 -11 -22 -11 -51 0
-45 -2 -50 -15 -39 -17 14 -20 62 -5 91 12 21 25 25 35 9z m-368 -47 c-3 -10
-5 -2 -5 17 0 19 2 27 5 18 2 -10 2 -26 0 -35z m-307 10 c0 -30 -9 -27 -15 6
-2 11 0 21 6 21 5 0 9 -12 9 -27z m61 -38 c6 -62 3 -95 -9 -100 -19 -7 -32 38
-32 108 l0 62 20 -25 c11 -14 20 -34 21 -45z m-324 -17 c-3 -7 -5 -2 -5 12 0
14 2 19 5 13 2 -7 2 -19 0 -25z m263 -30 c0 -38 -3 -49 -11 -41 -10 10 -4 93
7 93 2 0 4 -23 4 -52z m117 5 c-3 -10 -5 -2 -5 17 0 19 2 27 5 18 2 -10 2 -26
0 -35z m350 0 c-3 -10 -5 -2 -5 17 0 19 2 27 5 18 2 -10 2 -26 0 -35z m63 6
c0 -22 -5 -29 -20 -29 -15 0 -20 7 -20 29 0 28 16 44 33 34 4 -2 7 -17 7 -34z
m177 4 c-3 -10 -5 -4 -5 12 0 17 2 24 5 18 2 -7 2 -21 0 -30z m-1555 -25 c-9
-9 -12 -4 -11 23 0 32 1 33 11 11 8 -17 8 -26 0 -34z m1254 33 c12 9 14 5 14
-26 0 -32 -2 -36 -15 -25 -12 10 -15 9 -15 -4 0 -9 5 -25 12 -35 9 -15 9 -26
0 -45 -10 -22 -9 -27 8 -36 19 -10 24 -6 21 13 0 4 4 7 9 7 6 0 10 -9 10 -20
0 -23 -8 -24 -44 -10 -17 6 -26 17 -26 32 0 13 -5 30 -10 38 -8 12 -10 12 -10
-5 -1 -18 -2 -17 -11 4 -5 14 -6 41 0 70 l9 46 1 -37 c2 -55 21 -46 22 10 1
26 3 39 6 29 4 -14 8 -16 19 -6z m151 -23 c-3 -7 -5 -2 -5 12 0 14 2 19 5 13
2 -7 2 -19 0 -25z m-1104 2 c-6 -24 -26 -21 -31 3 -2 11 3 17 16 17 15 0 19
-5 15 -20z m984 -17 c-3 -10 -5 -4 -5 12 0 17 2 24 5 18 2 -7 2 -21 0 -30z
m163 -30 c0 -48 -3 -64 -10 -53 -7 11 -10 0 -10 -37 0 -54 -19 -76 -21 -25 -8
151 -7 165 10 120 7 -19 9 -16 15 20 9 62 16 51 16 -25z m-1410 29 c0 -15 -2
-15 -10 -2 -13 20 -13 33 0 25 6 -3 10 -14 10 -23z m113 -2 c-7 -28 -13 -25
-13 6 0 14 4 23 9 20 5 -3 7 -15 4 -26z m247 20 c0 -5 -4 -10 -10 -10 -5 0
-10 5 -10 10 0 6 5 10 10 10 6 0 10 -4 10 -10z m621 -36 c11 -13 2 -24 -15
-18 -8 3 -11 17 -7 37 3 23 6 27 9 12 2 -11 8 -25 13 -31z m-904 -26 c-2 -13
-4 -3 -4 22 0 25 2 35 4 23 2 -13 2 -33 0 -45z m1362 -5 c-1 -54 -2 -56 -10
-23 -8 33 -5 80 6 80 3 0 5 -26 4 -57z m-499 26 c0 -5 -4 -9 -10 -9 -5 0 -10
7 -10 16 0 8 5 12 10 9 6 -3 10 -10 10 -16z m550 11 c0 -5 -4 -10 -10 -10 -5
0 -10 5 -10 10 0 6 5 10 10 10 6 0 10 -4 10 -10z m-183 -62 c-2 -13 -4 -3 -4
22 0 25 2 35 4 23 2 -13 2 -33 0 -45z m33 40 c0 -16 -3 -19 -11 -11 -6 6 -8
16 -5 22 11 17 16 13 16 -11z m-1330 0 c0 -7 -5 -20 -10 -28 -8 -12 -10 -9
-10 13 0 15 5 27 10 27 6 0 10 -6 10 -12z m350 8 c0 -3 -4 -8 -10 -11 -5 -3
-10 -1 -10 4 0 6 5 11 10 11 6 0 10 -2 10 -4z m756 -44 c-12 -11 -18 7 -10 30
l8 23 4 -23 c2 -13 1 -26 -2 -30z m161 -14 c-2 -13 -4 -3 -4 22 0 25 2 35 4
23 2 -13 2 -33 0 -45z m-1307 31 c0 -5 -4 -9 -10 -9 -5 0 -10 7 -10 16 0 8 5
12 10 9 6 -3 10 -10 10 -16z m1547 -1 c-3 -8 -6 -5 -6 6 -1 11 2 17 5 13 3 -3
4 -12 1 -19z m63 -25 c0 -21 -3 -24 -9 -14 -5 8 -7 20 -4 28 8 21 13 15 13
-14z m-320 7 c0 -5 -2 -10 -4 -10 -3 0 -8 5 -11 10 -3 6 -1 10 4 10 6 0 11 -4
11 -10z m80 -40 c0 -33 -3 -40 -20 -40 -20 0 -20 11 3 58 14 31 17 28 17 -18z
m-1090 -19 c0 -6 -4 -13 -10 -16 -5 -3 -10 1 -10 9 0 9 5 16 10 16 6 0 10 -4
10 -9z m750 -17 c0 -14 -3 -14 -15 -4 -8 7 -15 14 -15 16 0 2 7 4 15 4 8 0 15
-7 15 -16z m62 -9 c3 -13 1 -22 -3 -19 -9 5 -13 44 -5 44 2 0 6 -11 8 -25z
m-1252 -5 c-8 -5 -24 -9 -35 -9 -16 1 -16 2 5 9 35 11 48 11 30 0z m1400 -17
c0 -22 -2 -25 -10 -13 -13 20 -13 40 0 40 6 0 10 -12 10 -27z m249 10 c1 10 5
16 11 12 16 -10 -1 -35 -24 -36 -11 0 -15 -3 -8 -6 17 -7 15 -30 -3 -37 -19
-7 -21 35 -3 64 12 18 13 19 20 2 6 -16 7 -16 7 1z m-202 -15 c-3 -8 -6 -5 -6
6 -1 11 2 17 5 13 3 -3 4 -12 1 -19z m260 0 c-3 -8 -6 -5 -6 6 -1 11 2 17 5
13 3 -3 4 -12 1 -19z m76 -30 l6 -38 -32 16 c-41 21 -48 28 -19 20 20 -7 22
-4 22 25 0 42 16 26 23 -23z m-253 16 c0 -8 -7 -14 -15 -14 -8 0 -15 9 -15 20
0 13 5 18 15 14 8 -4 15 -12 15 -20z m-342 -32 c2 -18 -1 -32 -6 -32 -5 0 -9
6 -10 13 0 6 -4 23 -8 36 -5 18 -4 23 7 19 8 -2 15 -19 17 -36z m-908 -4 c0
-5 5 -6 10 -3 6 3 10 1 10 -5 0 -6 -11 -15 -24 -20 -22 -8 -24 -13 -19 -47 4
-30 3 -36 -7 -26 -18 17 -4 124 16 116 8 -3 14 -9 14 -15z m1387 0 c-3 -8 -6
-5 -6 6 -1 11 2 17 5 13 3 -3 4 -12 1 -19z m-137 -24 c0 -14 -4 -23 -10 -19
-5 3 -10 15 -10 26 0 10 5 19 10 19 6 0 10 -12 10 -26z m304 -13 c-7 -7 -34
21 -28 31 3 5 12 1 19 -9 7 -10 12 -20 9 -22z m-470 4 c3 -8 1 -15 -4 -15 -6
0 -10 7 -10 15 0 8 2 15 4 15 2 0 6 -7 10 -15z m284 -22 c3 -23 1 -25 -12 -13
-14 11 -16 9 -16 -14 0 -15 7 -29 15 -32 18 -7 20 -30 3 -37 -10 -4 -10 -7 0
-15 10 -7 10 -11 -1 -21 -12 -9 -16 -7 -21 11 -10 37 -7 105 6 133 13 29 21
25 26 -12z m-45 -152 c-7 -11 -11 9 -13 59 -3 101 4 126 9 35 3 -49 5 -92 4
-94z m70 136 c2 -20 0 -34 -5 -31 -4 3 -8 21 -8 41 0 45 10 38 13 -10z m157 8
c0 -8 -4 -15 -10 -15 -5 0 -10 7 -10 15 0 8 5 15 10 15 6 0 10 -7 10 -15z m24
-125 c4 -85 3 -120 -4 -110 -9 14 -15 249 -6 239 2 -2 6 -60 10 -129z m-458
99 c3 -5 0 -17 -5 -26 -6 -10 -11 -13 -11 -7 0 7 -9 14 -20 17 -13 3 -18 11
-14 20 5 15 39 12 50 -4z m129 11 c27 -7 27 -8 5 -8 -14 0 -36 4 -50 8 -20 6
-21 8 -5 8 11 0 34 -4 50 -8z m-78 -32 c-3 -7 -5 -2 -5 12 0 14 2 19 5 13 2
-7 2 -19 0 -25z m-1190 -50 c-3 -8 -6 -5 -6 6 -1 11 2 17 5 13 3 -3 4 -12 1
-19z m1570 0 c-3 -8 -6 -5 -6 6 -1 11 2 17 5 13 3 -3 4 -12 1 -19z m-97 -8 c0
-5 -5 -10 -11 -10 -5 0 -7 5 -4 10 3 6 8 10 11 10 2 0 4 -4 4 -10z m69 -45 l0
-20 -9 20 c-5 11 -9 27 -9 35 -1 13 0 13 9 0 5 -8 9 -24 9 -35z m31 10 c0 -8
-4 -15 -10 -15 -5 0 -10 7 -10 15 0 8 5 15 10 15 6 0 10 -7 10 -15z m-393 -1
c-3 -3 -12 -4 -19 -1 -8 3 -5 6 6 6 11 1 17 -2 13 -5z m90 -44 c1 -34 1 -34
-5 -5 -6 25 -13 31 -40 33 -17 2 -32 7 -32 11 0 4 17 5 38 2 34 -6 37 -9 39
-41z m153 20 c0 -13 -7 -20 -20 -20 -11 0 -20 5 -20 11 0 6 7 9 15 5 9 -3 15
0 15 9 0 8 2 15 5 15 3 0 5 -9 5 -20z m-1423 -22 c-3 -7 -5 -2 -5 12 0 14 2
19 5 13 2 -7 2 -19 0 -25z m1370 -15 c-3 -10 -5 -4 -5 12 0 17 2 24 5 18 2 -7
2 -21 0 -30z m-422 9 c-3 -3 -11 0 -18 7 -9 10 -8 11 6 5 10 -3 15 -9 12 -12z
m555 -3 c0 -11 -4 -18 -10 -14 -5 3 -7 12 -3 20 7 21 13 19 13 -6z m-475 -9
c3 -6 -1 -7 -9 -4 -18 7 -21 14 -7 14 6 0 13 -4 16 -10z m-85 -20 c13 -24 2
-50 -11 -29 -9 15 -12 49 -4 49 2 0 9 -9 15 -20z m727 -12 c-3 -8 -6 -5 -6 6
-1 11 2 17 5 13 3 -3 4 -12 1 -19z m-401 -25 c-11 -11 -19 6 -11 24 8 17 8 17
12 0 3 -10 2 -21 -1 -24z m-1269 5 c-3 -8 -6 -5 -6 6 -1 11 2 17 5 13 3 -3 4
-12 1 -19z m1426 -13 c4 -26 4 -26 -14 -6 -23 24 -24 31 -5 31 7 0 16 -11 19
-25z m151 -17 c-8 -12 -34 -10 -34 3 0 5 5 7 10 4 6 -3 10 2 10 12 0 15 2 15
9 3 6 -8 7 -18 5 -22z m35 -73 c1 -16 -1 -17 -9 -5 -5 8 -9 29 -9 45 1 29 1
29 9 5 4 -14 8 -34 9 -45z m-49 40 c-7 -9 -15 -13 -19 -10 -3 3 1 10 9 15 21
14 24 12 10 -5z m-1878 -129 c-13 -8 -13 -10 2 -22 24 -17 12 -34 -25 -34 -26
0 -29 3 -24 20 4 12 1 27 -5 35 -14 17 1 20 17 4 15 -15 33 -3 34 24 0 21 1
21 8 2 6 -14 4 -23 -7 -29z m179 16 c-7 -2 -18 1 -23 6 -8 8 -4 9 13 5 13 -4
18 -8 10 -11z m186 -28 c-3 -3 -12 -4 -19 -1 -8 3 -5 6 6 6 11 1 17 -2 13 -5z
m378 -28 c-10 -14 -22 -23 -27 -20 -5 3 1 17 13 30 28 30 36 24 14 -10z m-905
5 c0 -6 -4 -13 -10 -16 -5 -3 -10 1 -10 9 0 9 5 16 10 16 6 0 10 -4 10 -9z
m130 -116 c-28 -30 -40 -32 -40 -6 0 18 15 27 49 30 10 1 7 -7 -9 -24z m1823
-33 c3 -42 3 -42 -30 -42 -28 0 -33 3 -33 24 0 14 -4 28 -10 31 -15 9 -12 28
3 22 7 -3 21 1 32 9 25 18 34 8 38 -44z m-1690 41 c-7 -2 -19 -2 -25 0 -7 3
-2 5 12 5 14 0 19 -2 13 -5z m1727 -48 c0 -19 -4 -35 -10 -35 -5 0 -10 16 -10
35 0 19 5 35 10 35 6 0 10 -16 10 -35z m-1910 -9 c0 -12 -43 -76 -51 -76 -14
0 -11 12 11 48 17 27 40 43 40 28z m2060 -118 c0 -38 -3 -49 -10 -38 -16 25
-11 90 7 90 2 0 3 -24 3 -52z m-2139 -39 c-5 -13 -10 -19 -10 -12 -1 15 10 45
15 40 3 -2 0 -15 -5 -28z m836 -631 c-3 -8 -6 -5 -6 6 -1 11 2 17 5 13 3 -3 4
-12 1 -19z m47 -147 c3 -5 -1 -11 -9 -15 -9 -3 -15 0 -15 9 0 16 16 20 24 6z
m76 -53 c0 -6 -6 -5 -15 2 -8 7 -15 14 -15 16 0 2 7 1 15 -2 8 -4 15 -11 15
-16z m-110 -118 c0 -5 -4 -10 -10 -10 -5 0 -10 5 -10 10 0 6 5 10 10 10 6 0
10 -4 10 -10z m-566 -55 c-7 -16 -24 -21 -24 -6 0 8 7 13 27 20 1 1 0 -6 -3
-14z m-59 -24 c3 -5 1 -12 -5 -16 -5 -3 -10 1 -10 9 0 18 6 21 15 7z m175 -23
c0 -7 -5 -20 -10 -28 -8 -12 -10 -9 -10 13 0 15 5 27 10 27 6 0 10 -6 10 -12z
m-144 -25 c3 -16 7 -34 10 -40 2 -7 -1 -13 -6 -13 -6 0 -10 9 -10 19 0 11 -4
23 -10 26 -13 8 -13 35 0 35 5 0 12 -12 16 -27z m97 -32 c-10 -2 -24 -8 -30
-13 -10 -8 -13 -6 -13 6 0 9 -7 16 -15 16 -8 0 -15 9 -15 19 0 19 1 19 45 -2
31 -15 40 -23 28 -26z m832 -21 c-3 -5 -13 -10 -21 -10 -8 0 -12 5 -9 10 3 6
13 10 21 10 8 0 12 -4 9 -10z m-800 -30 c19 -37 19 -53 -1 -92 -15 -28 -18
-30 -57 -24 l-41 7 24 -27 c23 -25 24 -26 3 -15 -12 6 -25 16 -28 21 -3 6 -17
10 -30 10 -17 0 -23 4 -19 15 3 8 9 14 12 13 21 -2 32 4 32 18 0 14 -3 14 -15
4 -12 -10 -19 -10 -27 -2 -16 16 -2 42 24 42 18 0 20 2 8 9 -8 6 -18 7 -22 5
-4 -3 -8 -1 -8 5 0 9 35 23 85 34 39 9 45 7 60 -23z m245 10 c0 -5 -5 -10 -11
-10 -5 0 -7 5 -4 10 3 6 8 10 11 10 2 0 4 -4 4 -10z m-141 -46 c2 -2 -6 -13
-19 -24 -13 -11 -19 -20 -15 -20 5 0 -1 -10 -12 -22 -15 -17 -18 -29 -13 -43
12 -29 12 -35 -3 -35 -9 0 -12 -10 -9 -30 3 -18 0 -30 -7 -30 -6 0 -11 -4 -11
-10 0 -5 12 -10 26 -10 17 0 39 14 64 40 39 41 84 55 78 24 -4 -20 -99 -74
-136 -78 -21 -3 -27 -9 -26 -25 1 -21 0 -21 -17 -5 -10 9 -23 31 -29 50 -10
30 -8 41 24 108 20 41 40 77 46 81 6 3 8 11 5 16 -15 23 30 34 54 13z m39 -61
c16 -16 17 -16 20 0 4 21 18 22 26 2 3 -8 1 -15 -5 -15 -6 0 -7 -5 -4 -10 4
-6 12 -4 21 5 23 23 35 18 24 -9 -5 -13 -7 -26 -4 -29 2 -2 -3 -10 -12 -18
-13 -11 -18 -11 -21 -1 -3 6 -11 12 -19 12 -8 0 -14 7 -14 15 0 8 -4 15 -8 15
-5 0 -14 11 -20 25 -13 29 -8 32 16 8z m65 -193 c10 -16 14 -30 9 -30 -6 0
-13 7 -16 16 -4 10 -13 13 -26 9 -22 -7 -26 5 -8 23 17 17 22 15 41 -18z m85
13 c-16 -2 -40 -2 -55 0 -16 2 -3 4 27 4 30 0 43 -2 28 -4z m492 -3 c-30 -4
-73 -8 -95 -8 l-40 1 40 6 c22 4 65 7 95 8 l55 1 -55 -8z"/>
<path d="M180 3550 c-6 -11 -8 -20 -6 -20 3 0 10 9 16 20 6 11 8 20 6 20 -3 0
-10 -9 -16 -20z"/>
<path d="M903 3536 c1 -6 -20 -14 -48 -19 -27 -5 -63 -13 -80 -18 -33 -10 32
-5 225 16 63 7 118 10 123 8 4 -2 7 -13 7 -24 0 -28 34 -21 38 7 2 16 -4 23
-25 29 -46 12 -242 13 -240 1z"/>
<path d="M1190 3522 c0 -5 14 -19 32 -32 29 -22 30 -24 12 -32 -17 -8 -17 -8
3 -4 15 2 23 -2 26 -15 3 -11 14 -19 25 -19 12 0 24 -4 27 -10 3 -5 11 -10 18
-10 12 0 -123 129 -135 130 -5 0 -8 -4 -8 -8z"/>
<path d="M1026 3454 c-23 -23 -20 -30 4 -9 11 10 20 20 20 22 0 7 -9 2 -24
-13z"/>
<path d="M3930 3439 c0 -5 5 -7 10 -4 6 3 10 8 10 11 0 2 -4 4 -10 4 -5 0 -10
-5 -10 -11z"/>
<path d="M990 3380 c-15 -28 -4 -39 17 -17 13 12 14 20 6 28 -8 8 -14 5 -23
-11z"/>
<path d="M3902 3328 c2 -18 10 -23 38 -25 31 -2 33 -2 11 7 -15 7 -21 16 -17
25 4 10 -1 15 -15 15 -15 0 -20 -5 -17 -22z"/>
<path d="M788 3303 c7 -3 16 -2 19 1 4 3 -2 6 -13 5 -11 0 -14 -3 -6 -6z"/>
<path d="M3946 3184 c-5 -12 -2 -15 10 -10 8 3 18 6 20 6 3 0 2 5 -1 10 -9 15
-22 12 -29 -6z"/>
<path d="M165 3180 c3 -5 17 -10 31 -10 13 0 24 5 24 10 0 6 -14 10 -31 10
-17 0 -28 -4 -24 -10z"/>
<path d="M238 3173 c7 -3 16 -2 19 1 4 3 -2 6 -13 5 -11 0 -14 -3 -6 -6z"/>
<path d="M3997 3143 c-3 -5 6 -9 20 -10 19 -1 22 1 12 8 -17 11 -26 11 -32 2z"/>
<path d="M375 3120 c-8 -13 15 -13 35 0 12 8 11 10 -7 10 -12 0 -25 -4 -28
-10z"/>
<path d="M430 3110 c-8 -6 -33 -15 -55 -20 -51 -14 -105 -40 -125 -62 -19 -21
-80 -35 -80 -18 0 8 -9 10 -25 6 -14 -4 -25 -2 -25 4 0 11 41 40 62 44 7 1 29
10 48 19 l35 17 -45 -5 c-25 -3 -46 -10 -48 -15 -2 -6 -12 -10 -23 -10 -11 0
-22 -7 -25 -15 -4 -9 -19 -15 -37 -15 -29 0 -30 0 -12 20 10 11 28 20 39 20
16 0 18 3 7 9 -7 5 -25 4 -42 -2 -29 -11 -29 -12 -29 -94 0 -81 0 -83 30 -98
36 -19 41 -19 34 0 -7 18 23 32 37 18 6 -6 4 -14 -6 -23 -21 -18 -19 -37 7
-46 12 -3 29 -15 37 -26 15 -17 18 -17 39 -3 21 16 33 63 11 50 -6 -4 -27 -4
-46 0 -25 4 -32 9 -24 15 8 4 11 12 7 18 -14 23 24 35 96 30 57 -5 79 -2 112
14 34 16 36 19 13 15 -26 -4 -27 -3 -12 13 14 16 14 18 -1 24 -9 3 -36 -3 -61
-14 -58 -25 -66 -20 -16 11 66 40 163 116 156 123 -9 8 -15 7 -33 -4z"/>
<path d="M890 3105 c-54 -29 -158 -75 -169 -75 -18 0 -165 -62 -181 -77 -12
-11 -11 -13 10 -14 l25 0 -23 -12 c-19 -8 -26 -8 -34 4 -8 11 -9 10 -4 -4 4
-13 -2 -20 -20 -27 -32 -13 -37 -12 -29 0 3 6 -1 10 -9 10 -8 0 -18 -4 -21
-10 -3 -5 -11 -10 -16 -10 -6 0 -7 5 -4 10 9 15 -4 12 -21 -4 -7 -8 -19 -16
-26 -19 -10 -3 -9 -8 4 -18 9 -8 18 -23 20 -33 2 -15 18 -22 67 -32 76 -16 95
-29 29 -21 -27 4 -48 3 -48 -1 0 -4 26 -25 56 -47 31 -22 65 -53 76 -68 21
-29 56 -113 66 -157 3 -13 11 -31 19 -38 8 -8 11 -23 8 -33 -5 -16 -1 -19 24
-19 22 0 29 4 25 14 -5 12 4 34 33 85 2 2 30 -8 63 -23 60 -27 61 -27 110 -11
40 13 52 14 69 3 12 -7 21 -16 21 -20 0 -3 16 -23 35 -44 19 -20 33 -40 30
-44 -3 -4 2 -13 10 -20 17 -14 48 -6 95 28 19 13 26 21 15 17 -37 -14 -50 -11
-47 9 2 11 -4 26 -14 33 -10 7 -19 22 -21 34 -3 19 0 20 24 14 l27 -6 -19 23
c-29 34 -58 58 -73 58 -18 0 -102 88 -88 94 6 2 3 5 -7 5 -9 1 -33 17 -51 36
-19 19 -39 35 -45 35 -12 0 -37 41 -33 54 2 5 -12 6 -29 2 -28 -5 -37 -2 -60
23 -15 17 -24 33 -20 36 3 4 6 12 6 18 0 15 41 24 203 44 119 14 141 19 127
30 -16 11 -14 13 11 18 16 3 43 12 59 20 42 19 7 19 -65 0 -64 -17 -104 -19
-95 -5 3 6 17 10 30 10 13 0 27 5 31 11 4 8 -3 9 -22 6 -77 -15 -112 -18 -118
-9 -6 11 -43 5 -61 -9 -6 -4 -17 -4 -24 0 -11 7 -9 11 5 20 18 11 18 12 -1 7
-95 -22 -132 -10 -40 13 25 6 51 20 57 31 7 11 20 20 28 20 8 1 29 12 45 25
32 27 17 32 -25 10z m-250 -149 c0 -2 -9 -6 -20 -9 -11 -3 -18 -1 -14 4 5 9
34 13 34 5z m455 -456 c3 -5 -1 -10 -9 -10 -9 0 -16 5 -16 10 0 6 4 10 9 10 6
0 13 -4 16 -10z"/>
<path d="M4047 3053 c-4 -3 -7 -11 -7 -17 0 -6 5 -5 12 2 6 6 9 14 7 17 -3 3
-9 2 -12 -2z"/>
<path d="M2040 3000 c13 -8 129 -3 139 6 2 2 -31 4 -75 4 -52 0 -74 -3 -64
-10z"/>
<path d="M3970 2981 c0 -12 6 -21 16 -21 9 0 14 7 12 17 -5 25 -28 28 -28 4z"/>
<path d="M4050 2950 c-8 -5 -10 -10 -5 -10 6 0 17 5 25 10 8 5 11 10 5 10 -5
0 -17 -5 -25 -10z"/>
<path d="M295 2860 c3 -5 10 -10 16 -10 5 0 9 5 9 10 0 6 -7 10 -16 10 -8 0
-12 -4 -9 -10z"/>
<path d="M315 2830 c3 -5 13 -10 21 -10 8 0 12 5 9 10 -3 6 -13 10 -21 10 -8
0 -12 -4 -9 -10z"/>
<path d="M62 2789 c2 -6 8 -10 13 -10 5 0 11 4 13 10 2 6 -4 11 -13 11 -9 0
-15 -5 -13 -11z"/>
<path d="M238 2779 c-31 -17 -22 -39 15 -35 17 2 37 5 43 7 14 5 114 -97 114
-116 0 -17 31 -35 60 -35 21 0 21 1 -6 50 -45 82 -154 172 -154 128 0 -9 -3
-9 -9 1 -8 13 -12 13 -27 0 -11 -9 -15 -9 -10 -1 9 14 -2 15 -26 1z"/>
<path d="M110 2772 c0 -16 36 -42 58 -42 34 0 26 24 -11 38 -40 14 -47 15 -47
4z"/>
<path d="M230 2710 c0 -12 -20 -42 -44 -68 -24 -26 -47 -57 -50 -69 -8 -24 12
-103 25 -103 13 0 22 47 13 62 -5 8 2 6 18 -4 15 -10 34 -15 42 -12 9 4 16 1
16 -6 0 -9 6 -8 18 3 10 10 24 17 30 17 15 0 15 -1 -2 48 -14 38 -13 41 4 44
16 3 14 9 -17 56 -37 55 -53 65 -53 32z"/>
<path d="M460 2715 c0 -4 11 -21 25 -39 14 -18 29 -57 35 -86 12 -64 15 -68
29 -42 12 22 1 65 -30 115 -16 27 -59 65 -59 52z"/>
<path d="M2400 2688 c0 -17 7 -31 20 -38 27 -14 27 6 0 40 l-20 25 0 -27z"/>
<path d="M2507 2673 c-10 -9 -9 -23 2 -23 5 0 11 7 15 15 5 15 -5 20 -17 8z"/>
<path d="M2462 2628 c8 -12 24 -24 34 -25 17 -3 17 -2 -1 6 -18 9 -18 10 -2
10 29 1 14 26 -18 29 -28 4 -28 3 -13 -20z"/>
<path d="M1015 2630 c3 -5 11 -10 16 -10 6 0 7 5 4 10 -3 6 -11 10 -16 10 -6
0 -7 -4 -4 -10z"/>
<path d="M4045 2620 c-3 -5 -1 -10 4 -10 6 0 11 5 11 10 0 6 -2 10 -4 10 -3 0
-8 -4 -11 -10z"/>
<path d="M384 2585 c22 -17 36 -19 36 -6 0 10 -24 21 -43 21 -7 0 -3 -7 7 -15z"/>
<path d="M358 2553 c-10 -2 -18 -10 -18 -16 0 -22 40 -77 55 -77 20 0 55 36
55 55 0 9 7 18 15 21 8 4 15 10 15 15 0 9 -90 11 -122 2z"/>
<path d="M2350 2547 c-1 -27 73 -117 96 -117 18 0 27 32 12 42 -7 5 -29 18
-48 30 -19 12 -40 29 -47 38 -7 8 -13 11 -13 7z"/>
<path d="M3933 2513 c-3 -10 -8 -22 -11 -26 -2 -5 5 -4 17 2 11 7 21 18 21 26
0 21 -19 19 -27 -2z"/>
<path d="M4050 2480 c0 -5 5 -10 10 -10 6 0 10 5 10 10 0 6 -4 10 -10 10 -5 0
-10 -4 -10 -10z"/>
<path d="M4033 2463 c-22 -8 -14 -20 15 -25 15 -3 36 -9 47 -13 11 -4 5 4 -14
19 -19 14 -35 26 -35 25 -1 0 -7 -3 -13 -6z"/>
<path d="M4090 2458 c0 -4 4 -8 9 -8 6 0 12 4 15 8 3 5 -1 9 -9 9 -8 0 -15 -4
-15 -9z"/>
<path d="M4000 2432 c0 -12 90 -56 97 -48 9 9 -28 35 -49 36 -9 0 -20 5 -23
10 -7 12 -25 13 -25 2z"/>
<path d="M485 2420 c3 -5 8 -10 11 -10 2 0 4 5 4 10 0 6 -5 10 -11 10 -5 0 -7
-4 -4 -10z"/>
<path d="M790 2368 c22 -23 34 -21 24 6 -3 9 -15 16 -25 16 -19 0 -19 -1 1
-22z"/>
<path d="M609 2366 c7 -9 25 -16 40 -16 35 0 104 -20 97 -28 -4 -3 8 -14 26
-24 27 -15 28 -18 8 -13 -14 3 -42 13 -62 22 -21 9 -45 12 -55 8 -15 -6 -15
-8 -3 -12 8 -3 22 -7 30 -10 8 -3 20 -7 25 -7 19 -2 77 -37 71 -43 -6 -6 23
-32 36 -33 11 0 -3 94 -14 101 -6 3 -10 10 -11 15 -2 13 -65 34 -115 39 -23 2
-52 7 -65 11 -19 6 -20 5 -8 -10z"/>
<path d="M3785 2290 c-13 -6 -15 -9 -5 -9 8 0 22 4 30 9 18 12 2 12 -25 0z"/>
<path d="M3910 2281 c0 -11 39 -25 47 -18 3 3 2 10 -2 16 -8 13 -45 15 -45 2z"/>
<path d="M3980 2269 c0 -5 9 -9 20 -9 11 0 20 2 20 4 0 2 -9 6 -20 9 -11 3
-20 1 -20 -4z"/>
<path d="M3878 2263 c7 -3 16 -2 19 1 4 3 -2 6 -13 5 -11 0 -14 -3 -6 -6z"/>
<path d="M3910 2252 c0 -17 21 -25 31 -13 5 6 6 9 3 6 -4 -3 -13 0 -21 6 -9 8
-13 8 -13 1z"/>
<path d="M3742 2214 c-41 -20 -52 -31 -52 -50 0 -17 4 -22 15 -18 17 7 20 24
4 24 -5 0 -7 5 -4 10 3 6 15 10 26 10 10 0 19 5 19 10 0 6 6 10 13 10 14 1 55
30 41 30 -6 0 -33 -12 -62 -26z"/>
<path d="M3810 2212 c0 -6 9 -12 20 -15 11 -3 20 -3 20 -1 0 2 -9 8 -20 14
-11 6 -20 7 -20 2z"/>
<path d="M3939 2218 c0 -2 -2 -12 -3 -24 -2 -17 2 -19 26 -16 28 4 28 5 12 23
-15 16 -32 25 -35 17z"/>
<path d="M3775 2190 c-3 -6 1 -7 9 -4 18 7 21 14 7 14 -6 0 -13 -4 -16 -10z"/>
<path d="M3656 2181 c-12 -5 -15 -10 -9 -14 6 -4 16 0 23 8 14 17 13 17 -14 6z"/>
<path d="M280 2162 c0 -26 16 -46 66 -77 53 -34 70 -67 42 -78 -9 -4 -8 -6 2
-7 8 0 26 -23 39 -50 20 -42 23 -59 18 -116 -5 -64 6 -124 20 -111 3 4 6 19 7
34 1 21 6 28 21 28 14 0 19 6 17 20 -2 11 -5 34 -5 51 -1 17 -9 39 -17 49 -14
17 -13 18 23 12 35 -5 37 -5 25 11 -7 9 -32 35 -55 58 -51 48 -58 79 -15 63
35 -13 146 -89 196 -134 21 -19 46 -35 55 -35 12 1 10 6 -9 21 -14 11 -42 36
-63 55 -21 19 -64 51 -95 71 -31 20 -88 57 -125 81 -37 25 -71 42 -74 38 -4
-4 -1 -11 7 -16 11 -7 12 -10 2 -10 -7 0 -29 12 -48 26 -19 15 -34 22 -34 16z
m130 -74 c0 -6 -6 -5 -15 2 -8 7 -15 14 -15 16 0 2 7 1 15 -2 8 -4 15 -11 15
-16z"/>
<path d="M3705 2060 c27 -12 35 -12 35 0 0 6 -12 10 -27 9 -25 0 -26 -1 -8 -9z"/>
<path d="M3647 2037 c-3 -8 -2 -19 2 -26 6 -9 11 -8 21 4 7 9 19 14 27 11 7
-3 13 -2 13 3 0 5 -10 11 -22 15 -32 8 -35 8 -41 -7z"/>
<path d="M3600 2019 c0 -18 2 -19 15 -9 8 7 15 16 15 21 0 5 -7 9 -15 9 -9 0
-15 -9 -15 -21z"/>
<path d="M3755 1986 c-32 -26 -29 -38 13 -51 25 -7 29 6 7 28 -16 17 -10 27
17 27 10 0 18 5 18 10 0 17 -24 11 -55 -14z"/>
<path d="M4105 1929 c9 -17 19 -29 21 -26 7 7 -18 57 -28 57 -5 0 -1 -14 7
-31z"/>
<path d="M3631 1927 c6 -12 19 -23 29 -23 16 0 15 3 -6 23 -14 13 -27 23 -29
23 -3 0 0 -10 6 -23z"/>
<path d="M3600 1920 c0 -5 5 -10 11 -10 5 0 7 5 4 10 -3 6 -8 10 -11 10 -2 0
-4 -4 -4 -10z"/>
<path d="M3952 1887 c-30 -11 -31 -14 -19 -31 13 -18 14 -18 20 3 4 16 13 21
37 21 17 0 38 -7 46 -15 24 -23 38 -18 22 8 -18 26 -58 31 -106 14z"/>
<path d="M3675 1870 c3 -5 8 -10 11 -10 2 0 4 5 4 10 0 6 -5 10 -11 10 -5 0
-7 -4 -4 -10z"/>
<path d="M740 1861 c0 -5 7 -12 16 -15 24 -9 28 -7 14 9 -14 17 -30 20 -30 6z"/>
<path d="M3971 1848 c-1 -23 9 -48 21 -48 7 0 7 4 0 13 -5 6 -12 21 -15 32 -3
15 -5 16 -6 3z"/>
<path d="M3897 1830 c5 -20 15 -25 26 -13 8 7 -11 33 -23 33 -5 0 -6 -9 -3
-20z"/>
<path d="M817 1809 c7 -7 15 -10 18 -7 3 3 -2 9 -12 12 -14 6 -15 5 -6 -5z"/>
<path d="M3750 1806 c0 -2 7 -12 16 -21 15 -15 15 -17 1 -28 -27 -20 -10 -65
31 -86 19 -10 26 -10 39 1 9 7 18 12 20 10 3 -2 7 -1 11 2 3 3 -2 6 -11 6 -20
0 -22 11 -5 28 9 9 8 16 -5 30 -17 19 -97 67 -97 58z"/>
<path d="M3905 1790 c-3 -6 1 -7 9 -4 18 7 21 14 7 14 -6 0 -13 -4 -16 -10z"/>
<path d="M4045 1710 c3 -5 8 -10 11 -10 2 0 4 5 4 10 0 6 -5 10 -11 10 -5 0
-7 -4 -4 -10z"/>
<path d="M3758 1643 c7 -3 16 -2 19 1 4 3 -2 6 -13 5 -11 0 -14 -3 -6 -6z"/>
<path d="M3800 1630 c-10 -6 -11 -10 -3 -10 7 0 10 -7 7 -15 -4 -8 -2 -15 4
-15 13 0 22 24 13 38 -4 7 -12 8 -21 2z"/>
<path d="M3862 1601 c4 -13 18 -16 19 -4 0 4 -5 9 -11 12 -7 2 -11 -2 -8 -8z"/>
<path d="M3836 1548 c-8 -65 -2 -86 20 -67 15 13 19 79 5 79 -5 0 -11 10 -13
23 -2 12 -7 -4 -12 -35z"/>
<path d="M3750 1579 c0 -5 11 -9 25 -9 14 0 25 2 25 4 0 2 -11 6 -25 8 -14 3
-25 1 -25 -3z"/>
<path d="M3787 1503 c-16 -15 -6 -43 14 -43 19 0 20 2 8 17 -8 9 -12 18 -11
20 6 8 -4 13 -11 6z"/>
<path d="M3863 1433 c-15 -5 -18 -33 -4 -33 8 0 25 30 19 35 -2 1 -9 0 -15 -2z"/>
<path d="M3740 1376 c0 -14 5 -28 12 -32 8 -5 9 -2 5 11 -4 9 -2 24 4 31 9 11
8 14 -5 14 -10 0 -16 -9 -16 -24z"/>
<path d="M3843 1364 c-7 -19 0 -26 21 -18 20 8 21 20 1 28 -9 3 -18 -1 -22
-10z"/>
<path d="M3850 1321 c0 -6 5 -13 12 -17 6 -4 8 -3 4 4 -3 6 2 13 11 15 14 4
13 5 -4 6 -13 0 -23 -3 -23 -8z"/>
<path d="M3857 1264 c-10 -11 -9 -52 3 -59 6 -3 17 1 26 9 8 9 12 16 7 16 -4
0 -1 5 7 10 13 8 12 10 -2 10 -10 0 -18 -6 -19 -12 -1 -7 -4 -3 -8 10 -3 13
-9 20 -14 16z"/>
<path d="M3870 1156 c0 -9 7 -12 20 -9 11 3 17 9 14 14 -8 14 -34 10 -34 -5z"/>
<path d="M4989 1130 c-8 -21 0 -40 17 -40 8 0 14 -4 14 -10 0 -5 4 -10 9 -10
5 0 7 9 4 21 -3 12 0 25 7 29 9 5 9 9 1 14 -6 4 -14 0 -17 -8 -8 -21 -22 -20
-26 2 -3 14 -5 14 -9 2z"/>
<path d="M5086 1124 c-13 -33 -7 -52 14 -47 14 4 20 14 20 34 0 31 -23 40 -34
13z"/>
<path d="M3885 1120 c-3 -5 -1 -10 4 -10 6 0 11 5 11 10 0 6 -2 10 -4 10 -3 0
-8 -4 -11 -10z"/>
<path d="M4909 1096 c-2 -3 -16 -7 -29 -9 -40 -8 -60 -18 -54 -28 3 -5 12 -2
21 6 14 14 17 14 33 -2 10 -10 17 -22 16 -27 0 -5 5 -11 12 -13 10 -4 10 1 0
22 -10 22 -9 28 2 35 8 5 12 11 9 14 -3 4 -8 4 -10 2z"/>
<path d="M3828 1038 c12 -12 25 -19 28 -15 4 4 -1 14 -12 22 -29 22 -41 18
-16 -7z"/>
<path d="M4923 1046 c5 -16 24 -18 30 -4 3 9 -3 14 -14 14 -11 0 -18 -5 -16
-10z"/>
<path d="M3075 1040 c-3 -5 -1 -10 4 -10 6 0 11 5 11 10 0 6 -2 10 -4 10 -3 0
-8 -4 -11 -10z"/>
<path d="M4964 1038 c-3 -4 11 -8 30 -8 20 0 36 2 36 4 0 8 -61 12 -66 4z"/>
<path d="M5078 1043 c6 -2 18 -2 25 0 6 3 1 5 -13 5 -14 0 -19 -2 -12 -5z"/>
<path d="M3117 1020 c3 -11 12 -20 21 -20 13 0 12 3 -3 20 -10 11 -19 20 -21
20 -1 0 0 -9 3 -20z"/>
<path d="M4833 1024 c-7 -3 -9 -12 -6 -20 3 -10 -2 -14 -18 -14 l-24 -1 25
-20 c14 -12 26 -25 26 -30 3 -22 6 -23 20 -4 16 19 16 19 10 -5 -3 -14 -3 -19
0 -12 3 6 12 12 20 12 11 0 12 4 5 19 -6 10 -7 21 -4 25 4 4 -3 9 -15 13 -17
4 -21 11 -17 24 6 19 1 22 -22 13z"/>
<path d="M4722 1004 c10 -10 20 -15 24 -12 3 4 -5 12 -18 18 -22 12 -22 12 -6
-6z"/>
<path d="M4875 1010 c3 -5 16 -15 28 -21 22 -12 22 -12 3 10 -19 21 -43 30
-31 11z"/>
<path d="M5008 993 c-10 -2 -18 -9 -18 -14 0 -6 -4 -8 -9 -4 -5 3 -12 1 -16
-5 -3 -5 0 -10 9 -10 8 0 16 -3 19 -7 2 -5 2 -2 1 4 -2 7 8 16 21 19 14 3 25
10 25 15 0 9 -4 10 -32 2z"/>
<path d="M5094 985 c-12 -6 -29 -17 -37 -24 -9 -7 -22 -9 -28 -5 -7 4 -10 3
-6 -2 12 -20 -45 -64 -84 -64 -19 0 -19 -1 -4 -17 10 -9 41 -31 71 -49 53 -32
62 -31 55 9 -1 5 3 6 9 2 5 -3 10 -17 10 -30 0 -14 8 -29 19 -34 17 -9 18 -7
16 20 -1 17 -8 35 -16 40 -10 6 -10 9 -1 9 7 0 12 13 12 31 0 18 -4 28 -10 24
-6 -4 -8 -10 -5 -15 3 -4 -3 -7 -13 -6 -19 1 -30 20 -31 51 0 16 3 14 16 -10
l16 -30 8 28 c4 16 13 35 19 42 19 23 9 43 -16 30z"/>
<path d="M3070 938 c0 -4 5 -8 11 -8 5 0 7 -4 4 -10 -3 -5 -1 -10 4 -10 6 0
11 8 12 18 0 9 3 12 5 6 3 -7 14 -10 24 -7 11 3 17 9 14 14 -6 11 -74 9 -74
-3z"/>
<path d="M4516 925 c-22 -13 -43 -22 -48 -19 -16 10 -8 -9 10 -22 16 -12 16
-13 -3 -20 -30 -11 -36 -26 -18 -46 13 -15 13 -18 2 -18 -11 0 -11 -2 -1 -9 7
-4 27 -7 45 -6 33 3 57 -9 57 -27 0 -6 -8 -4 -17 3 -14 12 -15 12 -9 0 6 -10
4 -12 -10 -8 -62 17 -96 18 -108 2 -6 -9 -21 -17 -34 -18 -13 -1 -18 -5 -13
-10 14 -14 61 1 61 18 0 21 14 19 41 -6 13 -11 17 -18 9 -16 -8 2 -22 -6 -30
-19 -8 -12 -28 -39 -44 -59 -16 -20 -25 -40 -20 -43 5 -4 9 -22 9 -39 -1 -18
3 -33 7 -33 4 0 8 -11 8 -24 0 -30 17 -44 22 -19 5 20 -11 64 -27 75 -18 13 4
20 38 14 30 -6 36 -11 42 -43 4 -24 3 -39 -4 -41 -14 -5 -14 -59 0 -67 6 -4
13 3 16 14 5 20 6 20 19 4 12 -17 13 -16 7 5 -4 17 -1 22 13 23 11 1 33 2 51
4 28 2 31 0 23 -14 -5 -11 -5 -23 2 -32 8 -11 9 -11 4 4 -6 20 5 22 22 5 13
-13 42 5 42 27 0 7 9 15 20 18 11 3 20 10 20 16 0 8 -6 9 -19 1 -26 -13 -31
-13 -25 4 3 7 -2 16 -10 19 -9 4 -15 3 -15 -1 4 -26 -2 -32 -20 -22 -11 5 -36
10 -56 10 -22 0 -34 4 -30 10 3 6 1 10 -4 10 -6 0 -11 5 -11 11 0 5 5 7 10 4
16 -10 12 21 -5 35 -12 10 -15 10 -15 0 0 -8 -3 -11 -6 -8 -3 3 1 21 9 40 11
26 23 37 46 41 17 4 38 4 48 0 11 -4 14 -3 9 5 -4 7 -2 12 3 12 6 0 11 -6 11
-12 0 -9 3 -9 9 1 12 18 41 7 89 -34 24 -20 32 -35 32 -58 0 -25 -3 -29 -11
-17 -13 18 -9 5 11 -33 12 -24 11 -32 -3 -62 -13 -27 -14 -41 -6 -62 8 -23 7
-30 -8 -41 -10 -7 -17 -16 -17 -20 1 -4 -3 -17 -9 -29 -8 -18 -6 -27 6 -41 10
-10 17 -23 17 -29 0 -6 4 -13 9 -15 12 -4 24 -89 24 -160 l-1 -58 119 0 119 0
26 53 c23 44 27 65 28 141 1 90 2 93 44 112 2 1 -8 13 -22 27 -23 23 -26 35
-26 92 0 42 4 64 10 60 15 -9 40 20 40 47 0 34 -11 68 -21 68 -5 0 -9 -9 -9
-19 0 -19 -2 -19 -45 -4 -41 14 -44 17 -39 41 4 15 13 33 22 40 14 11 14 12
-1 12 -20 0 -68 28 -80 47 -4 7 -13 13 -19 13 -6 0 -16 7 -23 16 -11 16 -12
16 -18 0 -4 -10 -1 -16 8 -16 19 0 19 -16 0 -24 -8 -3 -15 -1 -15 5 0 6 -3 8
-7 6 -5 -3 -23 8 -42 23 -27 23 -33 34 -29 55 4 17 2 23 -4 17 -12 -12 -18
-63 -7 -57 4 3 10 1 13 -4 3 -5 -3 -11 -14 -14 -23 -6 -36 27 -25 62 4 12 2
21 -4 21 -6 0 -11 4 -11 10 0 5 8 7 18 3 9 -3 15 -4 12 -2 -3 2 -15 12 -26 22
l-22 18 5 -46 c4 -30 2 -45 -6 -45 -6 0 -11 -6 -11 -14 0 -11 -5 -12 -25 -3
-25 12 -34 27 -15 27 6 0 10 7 10 16 0 14 -3 14 -15 4 -8 -7 -15 -9 -15 -5 0
5 -9 0 -20 -10 -25 -22 -26 -35 -2 -28 12 3 18 -2 19 -15 1 -12 -6 -22 -18
-25 -12 -3 -19 0 -19 9 0 16 -16 19 -25 4 -3 -5 -10 -10 -16 -10 -5 0 -9 5 -9
10 0 6 6 10 14 10 8 0 17 7 20 16 8 22 8 26 -3 19 -5 -3 -13 0 -17 6 -4 8 -3
9 5 5 8 -5 10 9 6 56 -3 35 -2 58 2 52 12 -17 53 -24 47 -9 -3 7 -18 15 -34
19 -19 3 -28 10 -25 19 9 21 -27 17 -69 -8z m237 -193 c4 -21 3 -31 -3 -27 -6
3 -10 -1 -10 -10 0 -9 -4 -13 -10 -10 -5 3 -10 17 -10 31 0 14 4 22 10 19 6
-3 10 4 10 16 0 30 6 22 13 -19z m97 -27 c0 -8 5 -15 10 -15 6 0 10 -9 10 -21
0 -18 -2 -19 -15 -5 -8 8 -15 19 -15 25 0 6 -5 11 -11 11 -5 0 -7 5 -4 10 9
15 25 12 25 -5z m-140 -26 c0 -14 -17 -10 -23 5 -4 10 -1 13 9 9 7 -3 14 -9
14 -14z m-228 -17 c3 -9 1 -26 -3 -37 -4 -11 -8 -14 -8 -7 -1 14 -31 17 -31 2
0 -5 -6 -10 -14 -10 -20 0 -12 41 11 58 24 17 40 15 45 -6z m434 -13 c19 -22
19 -22 -3 -10 -13 6 -23 16 -23 21 0 15 5 12 26 -11z m44 -34 c11 -13 10 -14
-4 -9 -9 3 -16 10 -16 15 0 13 6 11 20 -6z m110 -76 c0 -6 -4 -7 -10 -4 -5 3
-10 11 -10 16 0 6 5 7 10 4 6 -3 10 -11 10 -16z m-550 -29 c0 -5 -5 -10 -11
-10 -5 0 -7 5 -4 10 3 6 8 10 11 10 2 0 4 -4 4 -10z"/>
<path d="M5106 923 c-6 -14 -5 -15 5 -6 7 7 10 15 7 18 -3 3 -9 -2 -12 -12z"/>
<path d="M3172 908 c-13 -13 -16 -38 -4 -38 4 0 12 11 19 25 12 27 5 33 -15
13z"/>
<path d="M3305 910 c3 -5 11 -10 16 -10 6 0 7 5 4 10 -3 6 -11 10 -16 10 -6 0
-7 -4 -4 -10z"/>
<path d="M4730 901 c0 -6 5 -13 10 -16 6 -3 10 1 10 9 0 9 -4 16 -10 16 -5 0
-10 -4 -10 -9z"/>
<path d="M4410 890 c0 -5 5 -10 11 -10 5 0 7 5 4 10 -3 6 -8 10 -11 10 -2 0
-4 -4 -4 -10z"/>
<path d="M4830 870 c-6 -12 -9 -24 -6 -28 3 -3 6 0 6 6 0 6 10 12 22 14 19 3
20 4 5 16 -13 11 -17 10 -27 -8z"/>
<path d="M4616 869 c3 -5 0 -9 -5 -9 -7 0 -7 -8 1 -22 7 -13 14 -25 15 -27 3
-6 33 27 33 36 0 4 -11 13 -25 20 -14 6 -23 7 -19 2z"/>
<path d="M3831 861 c-8 -5 -9 -11 -3 -15 5 -3 12 1 16 9 6 17 6 18 -13 6z"/>
<path d="M3321 851 c-9 -6 -10 -11 -2 -15 6 -4 8 -13 4 -19 -9 -14 -11 -67 -3
-67 3 0 16 7 28 16 25 17 22 52 -5 67 -7 5 -11 12 -8 18 8 11 4 11 -14 0z"/>
<path d="M4336 851 c-3 -5 1 -11 9 -14 9 -4 12 -1 8 9 -6 16 -10 17 -17 5z"/>
<path d="M1856 809 c-14 -17 -26 -35 -26 -41 0 -16 64 37 68 56 5 25 -14 19
-42 -15z"/>
<path d="M3500 826 c0 -2 7 -6 15 -10 8 -3 15 -1 15 4 0 6 -7 10 -15 10 -8 0
-15 -2 -15 -4z"/>
<path d="M4273 819 c-14 -5 -21 -14 -17 -23 10 -25 29 -25 55 2 13 14 18 22
10 18 -7 -5 -16 -4 -20 1 -3 6 -15 7 -28 2z m24 -15 c-3 -3 -12 -4 -19 -1 -8
3 -5 6 6 6 11 1 17 -2 13 -5z"/>
<path d="M3256 804 c-4 -10 -1 -14 6 -12 15 5 23 28 10 28 -5 0 -13 -7 -16
-16z"/>
<path d="M4390 810 c0 -5 5 -10 11 -10 5 0 7 5 4 10 -3 6 -8 10 -11 10 -2 0
-4 -4 -4 -10z"/>
<path d="M4936 774 c-20 -19 -20 -25 -2 -18 8 3 17 12 20 20 7 18 1 18 -18 -2z"/>
<path d="M4980 780 c0 -5 5 -10 11 -10 7 0 9 -9 6 -23 -9 -33 5 -49 37 -41 18
4 25 11 22 21 -3 8 -6 19 -6 24 0 5 -9 9 -20 9 -11 0 -23 7 -26 15 -7 17 -24
20 -24 5z"/>
<path d="M1603 765 c-24 -17 -59 -86 -68 -137 -22 -117 128 -153 237 -58 46
41 29 47 -25 9 -54 -38 -130 -50 -162 -26 -43 32 -12 167 45 197 30 16 68 -4
72 -37 4 -38 38 -45 38 -8 0 58 -86 96 -137 60z"/>
<path d="M3380 770 c-9 -6 -10 -10 -3 -10 6 0 15 5 18 10 8 12 4 12 -15 0z"/>
<path d="M3597 766 c-6 -15 1 -26 15 -26 11 0 10 27 -1 34 -5 3 -11 0 -14 -8z"/>
<path d="M4075 770 c-3 -5 -2 -10 4 -10 5 0 13 5 16 10 3 6 2 10 -4 10 -5 0
-13 -4 -16 -10z"/>
<path d="M3640 740 c0 -5 -7 -10 -15 -10 -13 0 -13 -3 -3 -14 11 -11 15 -11
25 3 15 20 16 31 3 31 -5 0 -10 -4 -10 -10z"/>
<path d="M2710 733 c-26 -10 -60 -46 -60 -64 0 -41 24 -61 113 -92 9 -4 17
-10 17 -16 0 -19 -107 -30 -126 -11 -13 13 -35 -3 -25 -19 9 -14 110 -19 148
-7 27 9 40 44 22 61 -8 6 -36 20 -64 30 -62 22 -69 28 -61 53 8 25 57 46 86
37 18 -6 21 -3 18 12 -3 18 -39 27 -68 16z"/>
<path d="M1846 718 c-3 -7 -7 -47 -9 -88 -7 -112 14 -135 80 -84 49 38 44 61
-7 28 -22 -15 -43 -24 -47 -20 -3 3 -2 39 3 80 5 41 8 79 6 85 -5 15 -22 14
-26 -1z"/>
<path d="M2206 715 c-16 -17 -46 -105 -46 -137 0 -11 11 -30 24 -43 20 -20 29
-23 53 -16 50 16 59 21 77 52 20 34 13 54 -9 23 -7 -11 -32 -29 -55 -39 -41
-18 -43 -18 -56 -1 -15 22 -9 67 15 110 22 39 39 43 51 12 12 -33 30 -34 30
-2 0 48 -52 73 -84 41z"/>
<path d="M1994 638 c3 -46 5 -93 6 -106 0 -35 22 -21 25 16 5 62 60 134 118
155 7 2 9 8 5 12 -12 13 -66 -16 -98 -52 -28 -31 -30 -32 -30 -11 0 34 -11 68
-22 68 -5 0 -7 -34 -4 -82z"/>
<path d="M2378 648 c-4 -83 7 -128 30 -128 8 0 35 20 59 45 23 25 45 45 48 45
3 0 5 -12 5 -26 0 -53 29 -75 74 -58 24 9 19 27 -6 21 -12 -4 -28 -1 -35 5
-18 14 -16 70 2 115 21 49 3 68 -20 22 -21 -41 -115 -140 -127 -133 -4 3 -8
41 -8 85 0 99 -17 104 -22 7z"/>
<path d="M3590 700 c0 -5 4 -10 9 -10 6 0 13 5 16 10 3 6 -1 10 -9 10 -9 0
-16 -4 -16 -10z"/>
<path d="M5065 700 c-3 -5 -1 -10 4 -10 6 0 11 5 11 10 0 6 -2 10 -4 10 -3 0
-8 -4 -11 -10z"/>
<path d="M4213 663 c9 -2 23 -2 30 0 6 3 -1 5 -18 5 -16 0 -22 -2 -12 -5z"/>
<path d="M4330 641 c0 -5 7 -14 15 -21 12 -10 15 -10 15 3 0 8 -7 17 -15 21
-8 3 -15 2 -15 -3z"/>
<path d="M3490 611 c0 -5 3 -16 6 -25 5 -14 8 -14 21 -1 8 8 11 19 8 25 -8 13
-35 13 -35 1z"/>
<path d="M4316 605 c-3 -8 -1 -15 4 -15 6 0 10 7 10 15 0 8 -2 15 -4 15 -2 0
-6 -7 -10 -15z"/>
<path d="M4609 562 c7 -12 9 -27 6 -32 -9 -15 1 -12 14 3 8 11 6 18 -10 33
-22 19 -22 19 -10 -4z"/>
<path d="M4213 507 c1 -5 16 -12 32 -14 17 -3 37 -5 45 -7 23 -3 41 -16 35
-26 -7 -12 12 -60 24 -60 6 0 8 7 5 15 -4 10 0 15 11 15 15 0 16 2 4 17 -13
15 -11 16 15 9 26 -6 28 -5 17 8 -7 9 -18 13 -23 10 -5 -3 -23 6 -38 21 -23
22 -32 26 -43 17 -8 -7 -17 -9 -20 -5 -11 11 -68 11 -64 0z"/>
<path d="M3610 500 c0 -5 5 -10 10 -10 6 0 10 5 10 10 0 6 -4 10 -10 10 -5 0
-10 -4 -10 -10z"/>
<path d="M4375 500 c3 -5 8 -10 11 -10 2 0 4 5 4 10 0 6 -5 10 -11 10 -5 0 -7
-4 -4 -10z"/>
<path d="M4573 436 c1 -16 9 -32 17 -34 12 -4 13 -2 4 9 -7 8 -14 23 -17 34
-4 13 -5 9 -4 -9z"/>
<path d="M4406 412 c-3 -5 6 -26 20 -48 l25 -39 -7 34 c-7 36 -29 67 -38 53z"/>
<path d="M4597 356 c-3 -7 -26 -16 -51 -19 -33 -5 -54 -16 -80 -42 -38 -38
-42 -45 -26 -45 6 0 21 -9 33 -20 12 -11 27 -18 33 -16 6 2 15 1 20 -4 5 -4
27 -10 50 -14 33 -5 45 -2 59 14 10 11 14 20 9 20 -5 0 6 9 24 20 17 11 32 22
32 25 0 2 -18 16 -40 30 -22 14 -40 32 -40 40 0 19 -17 28 -23 11z m-17 -50
c0 -2 -7 -6 -15 -10 -8 -3 -15 -1 -15 4 0 6 7 10 15 10 8 0 15 -2 15 -4z"/>
<path d="M5090 361 c0 -6 4 -13 10 -16 6 -3 7 1 4 9 -7 18 -14 21 -14 7z"/>
<path d="M4425 127 c-4 -10 -5 -21 -1 -24 10 -10 18 4 13 24 -4 17 -4 17 -12
0z"/>
<path d="M4570 115 c0 -16 -6 -25 -15 -25 -8 0 -15 7 -15 15 0 12 -4 12 -29
-2 -18 -11 -27 -24 -26 -37 1 -12 3 -31 4 -43 1 -20 7 -23 40 -23 24 0 46 7
56 17 16 16 18 16 27 0 12 -23 48 -22 49 1 0 15 1 14 8 -3 6 -16 9 -13 13 16
3 19 4 47 1 63 -5 23 -10 27 -30 23 -15 -3 -27 2 -33 12 -8 14 -9 13 -10 -6 0
-12 -5 -25 -11 -29 -9 -5 -10 1 -5 20 5 19 3 26 -9 26 -9 0 -15 -9 -15 -25z"/>
<path d="M3378 90 c-3 -17 -1 -30 4 -30 4 0 8 -7 8 -16 0 -45 75 -62 86 -20 9
38 1 61 -24 64 -12 2 -22 10 -22 18 0 8 -10 14 -24 14 -19 0 -25 -6 -28 -30z"/>
<path d="M3676 95 c-8 -22 3 -40 16 -27 7 7 7 16 1 27 -9 16 -10 16 -17 0z"/>
<path d="M3553 77 c-3 -6 -1 -13 5 -15 7 -2 10 -8 6 -13 -3 -5 -1 -9 5 -9 6 0
15 9 20 19 9 15 7 20 -9 24 -11 3 -23 0 -27 -6z"/>
<path d="M3320 70 c0 -5 5 -10 10 -10 6 0 10 -13 10 -30 0 -26 4 -30 27 -30
25 0 25 1 10 18 -10 10 -17 24 -17 30 0 6 -9 16 -20 22 -14 7 -20 7 -20 0z"/>
<path d="M3670 31 c0 -6 5 -13 10 -16 6 -3 10 1 10 9 0 9 -4 16 -10 16 -5 0
-10 -4 -10 -9z"/>
<path d="M4400 20 c0 -24 35 -28 44 -4 9 23 8 24 -19 24 -18 0 -25 -5 -25 -20z"/>
</g>
</svg>
